<svg id="svg" xmlns="http://www.w3.org/2000/svg" xmlns:xlink="http://www.w3.org/1999/xlink" width="400" height="399.81481481481484" viewBox="0, 0, 400,399.81481481481484"><g id="svgg"><path id="path0" d="M240.265 125.906 C 238.595 126.774,238.425 129.033,239.761 132.616 C 243.450 142.508,249.501 151.229,254.205 153.433 C 260.120 156.203,266.785 154.345,272.917 148.214 C 276.072 145.060,276.880 144.455,278.055 144.370 C 279.535 144.263,280.441 145.603,281.436 149.369 C 283.756 158.150,288.587 163.230,295.247 163.891 C 300.451 164.407,307.939 160.931,316.757 153.905 C 321.259 150.319,322.624 147.694,320.832 146.075 C 319.347 144.733,309.802 141.669,303.642 140.555 C 296.410 139.249,291.414 139.143,284.398 140.149 C 280.347 140.730,278.882 140.387,275.881 138.160 C 266.631 131.295,257.329 127.673,244.463 125.928 C 241.767 125.563,240.935 125.558,240.265 125.906 M250.833 130.468 C 259.106 131.221,270.656 136.169,272.299 139.663 C 274.445 144.228,267.622 150.990,260.324 151.531 C 255.396 151.897,250.285 148.169,246.514 141.459 C 242.120 133.639,243.624 129.812,250.833 130.468 M127.037 138.854 C 121.920 139.508,117.147 142.897,114.535 147.731 C 114.315 148.139,114.126 148.485,114.115 148.500 C 114.104 148.515,113.455 148.361,112.673 148.158 C 100.412 144.969,92.981 146.387,88.131 152.842 C 83.811 158.590,84.703 167.339,90.036 171.525 C 90.449 171.850,91.008 172.341,91.279 172.617 L 91.770 173.119 90.932 173.740 C 81.463 180.764,81.891 195.570,91.806 203.939 C 92.366 204.412,93.344 205.322,93.978 205.962 L 95.133 207.126 95.106 207.846 C 94.948 212.009,97.201 216.833,100.442 219.268 C 100.734 219.487,102.014 220.692,103.287 221.945 C 107.467 226.060,109.286 227.005,113.403 227.204 L 114.737 227.269 115.051 228.496 C 116.100 232.594,118.951 237.012,121.451 238.410 C 121.654 238.524,121.694 238.487,120.787 239.032 C 118.383 240.475,116.347 242.585,115.255 244.769 C 112.562 250.150,114.647 257.914,119.769 261.574 C 120.074 261.793,121.407 263.041,122.731 264.349 C 127.118 268.680,129.930 269.907,135.463 269.907 C 145.622 269.907,151.836 263.973,156.526 249.793 L 157.284 247.503 158.621 248.874 C 161.911 252.244,165.198 253.263,169.583 252.271 C 172.377 251.640,176.103 249.779,176.118 249.008 C 176.130 248.315,176.201 248.277,176.716 248.686 C 180.919 252.019,187.163 251.888,191.767 248.371 L 192.284 247.976 193.480 249.180 C 195.943 251.659,197.737 252.612,200.416 252.866 C 203.122 253.122,206.767 252.063,209.044 250.359 L 209.430 250.070 209.969 250.395 C 215.830 253.925,223.756 253.151,228.584 248.577 L 229.191 248.002 229.904 248.700 C 235.413 254.089,245.532 253.863,250.977 248.228 C 251.710 247.469,252.693 246.216,252.805 245.896 C 252.826 245.836,253.403 246.331,254.086 246.997 C 257.115 249.946,260.195 251.142,265.093 251.268 C 269.259 251.376,273.674 249.884,276.620 247.372 L 276.990 247.057 278.292 248.325 C 286.074 255.908,299.506 253.072,302.806 243.148 C 304.145 239.121,303.548 235.478,300.695 230.267 C 299.855 228.733,299.857 228.878,300.671 228.619 C 307.094 226.577,310.145 222.910,308.995 218.617 C 308.459 216.615,307.981 215.938,304.905 212.824 C 303.496 211.398,302.155 209.981,301.924 209.676 C 298.149 204.678,289.492 204.355,284.552 209.026 C 282.952 210.540,280.833 213.936,280.833 214.988 C 280.833 215.152,280.947 215.261,277.441 211.751 C 274.696 209.003,274.153 208.419,274.389 208.466 C 277.369 209.068,281.845 208.027,284.290 206.165 C 284.502 206.003,285.468 205.398,286.435 204.819 C 287.403 204.241,288.247 203.727,288.310 203.678 C 288.396 203.612,288.145 203.297,287.338 202.461 C 285.626 200.688,284.459 198.880,284.112 197.465 C 283.471 194.852,285.073 188.129,287.558 182.996 C 289.470 179.047,289.565 175.232,287.834 171.881 C 287.224 170.700,286.488 169.843,284.082 167.516 C 282.883 166.357,281.793 165.219,281.598 164.924 C 280.136 162.709,277.453 161.057,274.794 160.733 C 273.414 160.565,272.368 160.736,270.460 161.441 L 269.578 161.767 268.875 161.447 C 263.188 158.856,255.831 161.080,249.258 167.378 L 248.229 168.365 246.744 166.891 C 245.928 166.080,244.997 165.063,244.676 164.630 C 240.390 158.859,232.244 158.098,227.079 162.986 L 226.205 163.813 225.663 163.263 C 223.518 161.085,220.315 160.186,217.368 160.935 C 216.131 161.250,212.407 162.809,212.407 163.012 C 212.407 163.046,212.528 163.435,212.674 163.875 C 212.821 164.316,212.972 164.863,213.009 165.093 L 213.077 165.509 211.469 163.931 C 208.426 160.943,205.454 159.485,202.454 159.508 C 198.396 159.539,194.368 161.064,190.905 163.880 C 189.937 164.668,190.099 164.664,189.598 163.912 C 187.820 161.240,184.704 159.813,180.602 159.790 C 177.483 159.773,175.124 160.734,172.716 163.001 L 171.873 163.793 171.233 163.164 C 169.075 161.044,165.760 160.160,162.946 160.953 C 161.609 161.330,158.056 162.826,158.056 163.012 C 158.056 163.045,158.160 163.371,158.287 163.735 C 158.414 164.100,158.578 164.664,158.652 164.989 L 158.786 165.581 157.101 163.917 C 155.368 162.204,154.872 161.812,153.519 161.082 C 151.700 160.101,149.821 159.520,148.408 159.502 L 147.510 159.491 147.575 159.074 C 147.703 158.244,147.636 155.642,147.466 154.826 C 146.823 151.743,146.064 150.520,142.637 147.037 C 141.309 145.688,140.079 144.396,139.905 144.167 C 137.129 140.514,131.673 138.261,127.037 138.854 M296.528 142.180 C 302.228 142.769,308.870 144.692,311.858 146.619 C 315.043 148.674,315.221 150.960,312.419 153.829 C 307.505 158.859,299.133 161.966,294.120 160.620 C 287.787 158.919,282.638 150.027,285.048 144.954 C 286.251 142.421,290.027 141.509,296.528 142.180 M130.433 142.361 C 135.161 143.128,138.239 146.229,138.717 150.708 C 139.385 156.969,132.260 161.258,124.540 159.243 C 123.953 159.090,123.381 158.943,123.270 158.917 C 122.607 158.762,123.076 165.556,124.122 171.267 C 125.240 177.369,125.505 182.154,124.991 186.944 C 124.674 189.897,123.611 194.053,123.184 194.010 C 123.088 194.001,122.259 193.889,121.343 193.761 C 109.121 192.059,101.088 194.793,96.717 202.142 L 96.284 202.869 96.036 202.738 C 88.407 198.717,85.085 186.846,89.611 179.777 C 93.948 173.005,104.787 171.142,110.248 176.231 C 114.692 180.371,114.105 186.820,109.167 188.121 C 107.610 188.530,102.853 187.960,103.258 187.412 C 105.937 183.785,106.041 181.343,103.517 181.343 C 99.373 181.343,98.203 188.703,101.893 191.558 C 106.125 194.831,113.770 192.026,116.001 186.382 C 117.255 183.213,117.324 179.388,116.295 170.093 C 115.656 164.308,115.537 162.686,115.534 159.702 C 115.532 157.417,115.515 157.129,115.382 157.087 C 114.039 156.661,110.078 156.354,108.728 156.572 C 103.793 157.367,99.978 164.528,102.786 167.726 L 103.070 168.050 102.438 168.458 C 98.327 171.109,94.223 170.935,91.339 167.986 C 88.302 164.882,87.915 159.148,90.495 155.486 C 94.839 149.322,101.285 148.433,114.431 152.185 C 115.416 152.467,116.233 152.684,116.245 152.668 C 116.257 152.652,116.340 152.368,116.430 152.037 C 118.156 145.671,124.369 141.377,130.433 142.361 M130.602 147.871 C 128.223 148.363,125.365 151.048,124.257 153.830 C 123.908 154.706,123.882 154.675,125.093 154.851 C 127.313 155.173,129.102 155.129,130.809 154.711 C 132.239 154.360,133.544 152.711,133.536 151.267 C 133.523 149.030,132.230 147.534,130.602 147.871 M148.704 162.914 C 154.976 163.878,157.264 168.798,154.260 174.861 C 151.384 180.665,145.954 182.315,142.119 178.548 C 141.378 177.821,141.392 177.800,141.390 179.638 C 141.387 182.323,142.249 183.948,144.181 184.900 C 146.951 186.266,151.460 185.470,154.096 183.150 L 154.511 182.785 154.573 183.777 C 154.624 184.591,154.503 187.009,154.407 187.105 C 154.393 187.120,153.989 186.946,153.510 186.720 C 148.187 184.204,139.864 186.513,131.528 192.819 C 130.471 193.619,130.555 193.605,130.210 193.034 C 127.621 188.747,127.935 182.431,131.063 175.868 C 135.146 167.301,142.433 161.950,148.704 162.914 M203.657 163.009 C 209.672 164.236,211.689 169.763,208.237 175.556 C 205.063 180.879,200.158 182.149,196.516 178.589 C 195.710 177.802,195.723 177.786,195.723 179.566 C 195.723 181.762,196.081 182.836,197.187 183.947 C 199.616 186.388,204.929 186.045,208.346 183.225 C 208.582 183.030,208.801 182.870,208.832 182.870 C 208.982 182.870,208.883 186.219,208.703 187.273 C 207.320 195.363,198.791 200.003,190.278 197.297 C 182.822 194.926,180.656 186.467,185.008 176.715 C 185.583 175.426,185.581 175.414,184.884 176.079 C 182.609 178.251,179.583 178.826,176.258 177.719 L 175.524 177.474 175.878 177.292 C 178.343 176.028,178.974 171.086,176.728 170.635 C 174.949 170.278,172.827 171.899,170.472 175.417 C 167.711 179.540,165.566 188.608,166.329 192.932 L 166.479 193.781 166.207 194.691 C 165.970 195.486,164.945 198.554,164.767 199.004 C 164.722 199.117,164.612 198.903,164.403 198.294 C 163.759 196.422,162.974 195.382,160.146 192.654 C 159.046 191.592,157.919 190.422,157.641 190.054 C 157.070 189.295,155.907 188.150,155.243 187.693 C 154.708 187.325,154.707 187.352,155.330 185.476 C 155.961 183.573,156.431 182.513,158.661 177.963 C 162.426 170.279,163.198 167.750,162.546 165.246 C 162.470 164.953,162.407 164.680,162.407 164.639 C 162.407 164.285,164.761 163.990,165.837 164.208 C 168.509 164.750,171.111 167.639,171.111 170.064 C 171.111 170.424,171.224 170.306,172.017 169.120 C 174.545 165.341,177.201 163.363,180.001 163.176 C 185.354 162.819,188.899 166.488,187.696 171.142 C 187.434 172.154,187.473 172.203,187.966 171.477 C 192.153 165.311,198.405 161.937,203.657 163.009 M235.985 163.248 C 240.177 163.831,243.286 167.108,243.490 171.157 C 243.570 172.753,243.285 173.976,242.367 175.972 C 241.506 177.845,240.502 181.323,240.053 183.986 C 239.097 189.655,239.632 193.985,241.617 196.658 L 242.058 197.252 241.839 197.426 C 234.921 202.928,228.198 200.859,226.896 192.827 C 226.268 188.958,227.135 185.877,231.157 177.685 C 234.571 170.733,235.062 169.328,234.478 168.186 C 233.987 167.225,232.471 167.254,230.912 168.254 C 228.667 169.694,224.102 176.051,222.831 179.507 C 219.916 187.435,219.723 193.952,222.318 196.792 L 222.792 197.310 222.131 197.737 C 213.060 203.605,205.789 195.800,209.945 184.656 C 210.611 182.869,211.210 181.556,213.335 177.222 C 216.721 170.316,217.484 167.780,216.908 165.341 C 216.826 164.995,216.759 164.677,216.759 164.635 C 216.759 164.142,219.625 163.967,220.892 164.383 C 223.207 165.144,225.463 167.970,225.463 170.110 C 225.463 170.420,225.599 170.277,226.229 169.303 C 229.186 164.735,232.387 162.748,235.985 163.248 M264.861 163.798 C 267.646 164.108,269.733 165.568,271.002 168.093 C 271.408 168.901,271.421 168.893,271.578 167.761 C 271.695 166.909,271.633 165.781,271.431 165.109 C 271.278 164.602,271.282 164.597,271.993 164.345 C 273.891 163.672,276.215 164.247,277.862 165.796 C 280.437 168.218,280.885 171.961,279.038 175.627 C 277.867 177.954,276.425 182.057,275.792 184.866 C 274.560 190.331,274.922 194.347,276.864 196.756 C 277.119 197.073,277.315 197.344,277.298 197.359 C 276.937 197.678,274.863 198.771,274.048 199.072 C 268.113 201.263,263.558 197.740,263.217 190.694 L 263.194 190.231 262.621 191.164 C 259.701 195.917,255.857 198.245,251.675 197.791 C 244.078 196.967,241.080 189.164,244.757 179.785 C 248.233 170.920,256.385 164.023,263.750 163.717 C 263.903 163.710,264.403 163.747,264.861 163.798 M148.557 166.619 C 146.096 167.154,143.463 170.270,142.135 174.216 C 141.634 175.705,141.634 175.702,142.292 175.838 C 144.917 176.384,147.738 174.492,149.402 171.070 C 150.465 168.882,150.584 166.994,149.682 166.617 C 149.303 166.459,149.293 166.459,148.557 166.619 M203.056 166.575 C 200.372 167.038,196.558 171.907,196.095 175.462 C 195.983 176.322,198.998 175.989,200.527 174.972 C 203.530 172.976,205.874 167.248,203.962 166.581 C 203.648 166.472,203.654 166.472,203.056 166.575 M113.006 171.157 C 113.135 172.176,113.266 173.155,113.296 173.332 L 113.350 173.655 113.144 173.471 C 112.055 172.497,110.741 170.914,110.741 170.576 C 110.741 169.795,111.236 168.622,112.001 167.593 L 112.449 166.991 112.609 168.148 C 112.698 168.785,112.876 170.139,113.006 171.157 M264.676 167.280 C 258.835 168.753,254.319 179.521,257.981 183.241 C 259.864 185.155,263.101 184.636,265.376 182.057 C 265.784 181.594,267.954 177.223,268.397 175.972 C 269.832 171.916,269.196 168.387,266.871 167.492 C 266.355 167.294,265.102 167.173,264.676 167.280 M113.441 174.994 C 113.469 175.288,113.452 175.338,113.353 175.256 C 113.118 175.061,113.026 174.798,113.162 174.712 C 113.370 174.580,113.405 174.615,113.441 174.994 M179.522 182.530 C 179.706 182.726,179.715 182.788,179.630 183.237 C 179.579 183.508,179.537 183.869,179.537 184.040 C 179.537 184.424,179.491 184.425,178.865 184.054 L 178.363 183.757 178.784 183.036 C 179.257 182.226,179.245 182.235,179.522 182.530 M174.309 184.864 C 178.719 185.633,181.593 189.967,180.667 194.454 C 180.333 196.073,179.639 197.561,176.271 203.889 C 171.762 212.358,169.228 217.863,167.641 222.639 C 164.802 231.178,165.079 237.373,168.458 240.902 C 168.898 241.362,168.939 241.300,167.731 241.992 C 161.882 245.348,156.794 244.421,154.529 239.588 C 152.521 235.304,153.480 230.483,158.168 221.296 C 168.482 201.081,171.424 193.446,171.433 186.875 L 171.435 184.907 171.713 184.863 C 171.866 184.838,172.095 184.802,172.222 184.783 C 172.759 184.701,173.546 184.731,174.309 184.864 M150.807 189.168 C 157.358 190.707,158.490 198.671,152.646 202.106 C 149.471 203.972,143.634 204.641,136.277 203.982 L 135.324 203.896 135.077 204.193 C 133.279 206.348,130.917 211.322,130.244 214.369 C 128.652 221.574,131.370 226.190,137.083 225.985 C 141.301 225.834,143.759 224.623,146.068 221.558 C 147.211 220.040,147.412 219.621,148.558 216.356 C 150.332 211.304,151.428 209.291,153.183 207.861 C 155.557 205.927,159.004 206.245,160.473 208.534 C 161.426 210.019,159.906 213.443,157.011 216.332 C 155.879 217.462,155.929 217.374,154.996 219.922 C 153.915 222.873,153.037 225.838,151.121 233.020 C 147.295 247.358,144.939 252.839,140.837 256.941 C 133.916 263.862,121.891 262.505,118.401 254.409 C 115.985 248.804,118.237 242.788,123.418 241.005 C 123.694 240.911,123.926 240.843,123.935 240.856 C 123.944 240.869,124.087 241.295,124.253 241.802 C 125.333 245.105,126.807 246.338,129.676 246.340 C 135.117 246.343,139.006 242.375,142.774 232.976 C 143.190 231.940,143.511 231.072,143.487 231.049 C 143.464 231.026,142.868 231.598,142.162 232.321 C 136.638 237.976,130.975 239.507,125.417 236.847 C 115.775 232.233,115.032 215.504,123.995 204.869 C 125.173 203.471,125.211 203.421,125.142 203.352 C 124.977 203.187,121.809 203.299,120.858 203.503 C 114.235 204.924,110.449 211.174,112.670 217.019 L 112.850 217.493 112.004 217.820 C 106.420 219.974,101.011 217.369,99.075 211.592 C 97.515 206.937,99.278 202.407,103.832 199.366 C 108.822 196.035,114.638 195.673,126.979 197.922 C 128.500 198.199,129.805 198.426,129.879 198.426 C 129.952 198.426,130.374 198.102,130.817 197.707 C 137.867 191.401,145.830 187.999,150.807 189.168 M148.380 192.922 C 146.271 193.451,141.788 196.625,138.988 199.570 C 138.598 199.981,138.566 199.952,139.631 200.152 C 141.909 200.580,146.039 200.297,147.768 199.594 C 150.974 198.292,152.895 194.198,150.834 193.061 C 150.317 192.776,149.211 192.713,148.380 192.922 M191.148 204.346 C 192.820 205.474,194.844 206.241,197.269 206.666 C 198.014 206.797,198.140 206.841,197.917 206.890 C 196.921 207.110,196.057 207.364,195.395 207.630 C 194.748 207.889,194.606 207.918,194.462 207.817 C 192.979 206.778,189.362 206.257,186.873 206.724 L 186.564 206.782 187.304 205.266 C 187.712 204.432,188.176 203.408,188.337 202.991 L 188.628 202.231 189.560 203.067 C 190.072 203.526,190.787 204.102,191.148 204.346 M213.743 204.704 C 214.612 205.560,215.564 206.440,215.857 206.660 L 216.390 207.060 215.727 207.469 C 213.387 208.911,211.418 211.286,210.366 213.935 C 210.204 214.343,210.057 214.692,210.039 214.712 C 209.959 214.798,206.605 211.472,206.268 210.972 C 205.136 209.293,203.248 207.864,201.378 207.271 L 200.730 207.066 201.743 207.004 C 205.054 206.803,208.708 205.546,211.296 203.717 C 211.729 203.411,212.101 203.158,212.122 203.155 C 212.144 203.151,212.873 203.848,213.743 204.704 M269.600 206.079 C 269.587 206.092,269.265 206.022,268.885 205.923 C 265.150 204.953,259.155 206.998,255.106 210.623 L 254.471 211.191 254.059 210.758 C 253.832 210.519,253.473 210.093,253.261 209.810 C 252.176 208.361,250.429 207.079,248.657 206.432 C 248.403 206.339,248.179 206.252,248.160 206.238 C 248.142 206.224,248.313 205.992,248.542 205.722 C 249.002 205.179,249.968 203.846,250.024 203.677 C 250.045 203.615,250.274 203.750,250.563 203.993 C 254.934 207.677,261.466 207.691,266.399 204.027 L 267.082 203.519 268.352 204.788 C 269.051 205.485,269.613 206.066,269.600 206.079 M234.639 207.894 C 235.067 208.177,235.562 208.477,235.741 208.559 L 236.065 208.710 235.305 209.503 C 234.887 209.939,234.286 210.677,233.970 211.143 C 233.654 211.609,233.383 212.007,233.368 212.026 C 233.303 212.108,231.600 210.407,231.309 209.970 C 230.819 209.234,229.624 208.105,228.711 207.514 L 227.888 206.982 228.874 206.457 C 229.417 206.168,230.214 205.726,230.644 205.473 L 231.428 205.014 232.645 206.196 C 233.314 206.846,234.212 207.610,234.639 207.894 M267.928 209.032 C 274.251 210.133,276.207 215.856,272.276 221.753 C 269.207 226.359,264.772 227.300,261.424 224.057 L 260.765 223.419 260.707 223.712 C 260.491 224.788,260.710 226.920,261.134 227.870 C 262.694 231.368,268.592 231.775,272.574 228.659 L 273.229 228.147 273.294 228.582 C 273.496 229.928,273.157 232.876,272.621 234.444 C 270.404 240.920,262.519 244.374,255.393 241.989 C 248.748 239.766,246.542 233.023,249.590 224.259 C 252.959 214.577,261.074 207.838,267.928 209.032 M223.766 209.081 C 230.769 210.038,232.241 218.192,225.737 219.995 C 224.923 220.220,224.952 220.241,225.145 219.575 C 225.753 217.486,224.371 215.218,222.601 215.401 C 220.997 215.567,219.811 217.934,219.932 220.730 C 220.009 222.500,220.363 223.501,222.197 227.130 C 224.451 231.590,224.707 234.041,223.265 237.376 C 220.833 243.002,213.702 245.585,207.696 243.014 C 202.109 240.623,200.843 234.926,204.508 228.673 L 204.936 227.944 205.134 228.630 C 206.069 231.872,209.377 232.356,211.978 229.630 C 213.710 227.816,214.162 225.639,213.333 223.106 C 210.822 215.430,216.304 208.060,223.766 209.081 M246.749 209.255 C 252.958 210.795,253.938 218.015,248.193 219.887 C 247.138 220.231,247.021 220.238,247.128 219.959 C 248.552 216.213,244.358 213.573,242.679 217.159 C 241.449 219.789,241.740 222.048,243.847 226.231 C 246.447 231.391,246.774 233.215,245.685 236.478 C 244.130 241.142,240.008 243.933,234.676 243.933 C 227.472 243.933,223.175 239.004,224.867 232.680 C 225.297 231.073,226.902 227.728,227.053 228.122 C 227.088 228.213,227.191 228.536,227.281 228.840 C 228.066 231.477,230.804 232.182,233.254 230.376 C 235.535 228.695,236.366 225.910,235.424 223.102 C 234.891 221.512,234.789 220.935,234.783 219.491 C 234.755 212.656,240.534 207.713,246.749 209.255 M295.485 209.249 C 301.945 210.936,302.697 218.312,296.581 219.994 C 295.757 220.220,295.808 220.256,295.986 219.579 C 296.927 215.993,293.248 213.801,291.543 216.933 C 290.133 219.524,290.446 221.871,292.849 226.728 C 295.199 231.480,295.502 233.340,294.439 236.513 C 292.482 242.353,285.793 245.420,279.491 243.366 C 273.125 241.291,271.408 234.889,275.488 228.444 L 275.799 227.953 275.908 228.424 C 276.663 231.696,280.069 232.385,282.684 229.794 C 284.553 227.942,285.043 225.687,284.158 223.009 C 281.541 215.093,287.967 207.286,295.485 209.249 M191.557 210.085 C 193.582 210.674,195.089 211.936,196.107 213.892 C 196.509 214.665,196.516 214.672,196.597 214.398 C 196.767 213.825,196.787 212.026,196.630 211.360 C 196.548 211.013,196.481 210.691,196.481 210.645 C 196.481 210.129,199.409 209.983,200.620 210.438 C 204.833 212.024,206.081 216.523,203.709 221.573 C 199.684 230.141,198.948 238.128,201.863 241.596 L 202.232 242.035 201.648 242.415 C 195.306 246.540,189.217 243.657,188.728 236.297 L 188.657 235.233 188.201 235.973 C 184.687 241.664,179.967 243.758,174.981 241.838 C 167.293 238.878,167.718 226.586,175.833 217.186 C 180.420 211.873,187.193 208.814,191.557 210.085 M267.071 212.670 C 264.873 213.430,262.523 216.407,261.348 219.919 C 260.908 221.234,260.909 221.252,261.494 221.392 C 264.257 222.055,267.571 219.491,268.840 215.710 C 269.703 213.141,269.034 211.992,267.071 212.670 M146.090 212.824 C 146.221 212.928,144.267 218.181,143.904 218.704 C 142.550 220.649,140.560 222.063,138.511 222.533 L 138.272 222.588 138.349 222.012 C 138.667 219.623,139.967 216.341,141.665 213.637 L 142.260 212.690 144.162 212.747 C 145.209 212.778,146.076 212.813,146.090 212.824 M189.722 213.277 C 186.033 214.361,182.384 220.124,182.387 224.861 C 182.391 229.753,186.766 231.234,190.524 227.616 C 191.485 226.691,193.728 221.768,194.173 219.609 C 195.064 215.278,192.984 212.318,189.722 213.277 M88.667 221.165 C 88.362 226.256,85.918 229.878,82.361 230.510 C 81.954 230.582,81.600 230.647,81.574 230.653 C 81.549 230.660,81.845 230.722,82.232 230.792 C 86.421 231.551,89.315 235.059,89.291 239.352 L 89.285 240.509 89.637 239.160 C 90.819 234.627,93.168 231.715,96.204 231.019 C 97.235 230.782,97.233 230.789,96.317 230.575 C 92.004 229.569,89.153 225.971,89.131 221.505 C 89.125 220.129,89.119 220.093,88.928 220.093 C 88.742 220.093,88.727 220.153,88.667 221.165 M100.059 237.581 C 99.854 238.860,98.899 239.905,96.991 240.940 L 96.250 241.342 96.784 241.399 C 98.448 241.580,99.534 242.763,100.342 245.278 C 100.367 245.354,100.467 245.104,100.565 244.722 C 100.998 243.033,101.812 242.084,103.107 241.758 L 103.695 241.610 103.127 241.340 C 101.759 240.691,100.496 238.967,100.352 237.553 C 100.310 237.145,100.126 237.162,100.059 237.581 M81.267 238.866 C 81.225 238.981,81.158 239.606,81.118 240.255 C 80.953 242.936,78.888 245.740,76.458 246.583 C 75.980 246.750,76.022 246.848,76.526 246.741 C 78.285 246.366,79.737 247.922,80.821 251.344 C 81.452 253.338,81.528 253.425,81.528 252.154 C 81.528 250.075,82.666 248.096,84.428 247.111 C 84.987 246.799,85.032 246.667,84.579 246.667 C 82.607 246.667,80.916 243.580,81.291 240.665 C 81.416 239.689,81.400 238.498,81.267 238.866 " stroke="none" fill="#ff00b6" fill-rule="evenodd"></path></g></svg>
