<svg width="3537" height="2190" viewBox="0 0 3537 2190" fill="none" xmlns="http://www.w3.org/2000/svg">
<g filter="url(#filter0_d_173_61)">
<mask id="path-1-outside-1_173_61" maskUnits="userSpaceOnUse" x="12" y="12" width="3487" height="2140" fill="black">
<rect fill="white" x="12" y="12" width="3487" height="2140"/>
<path fill-rule="evenodd" clip-rule="evenodd" d="M2307.59 137.37C2285.65 148.774 2283.42 178.454 2300.97 225.529C2349.44 355.496 2428.94 470.077 2490.75 499.035C2568.46 535.428 2656.03 511.017 2736.59 430.465C2778.05 389.026 2788.66 381.077 2804.1 379.96C2823.54 378.554 2835.45 396.16 2848.52 445.64C2879 561.009 2942.48 627.753 3029.98 636.438C3098.35 643.217 3196.73 597.547 3312.59 505.236C3371.74 458.121 3389.67 423.632 3366.13 402.361C3346.62 384.729 3221.21 344.473 3140.28 329.836C3045.26 312.677 2979.62 311.285 2887.44 324.502C2834.21 332.136 2814.97 327.629 2775.54 298.37C2654.01 208.173 2531.79 160.586 2362.75 137.659C2327.33 132.863 2316.4 132.797 2307.59 137.37ZM2446.44 197.308C2555.14 207.201 2706.89 272.211 2728.47 318.117C2756.67 378.094 2667.03 466.937 2571.14 474.045C2506.39 478.854 2439.24 429.873 2389.7 341.714C2331.97 238.97 2351.73 188.689 2446.44 197.308ZM819.942 307.488C752.712 316.08 690.001 360.607 655.683 424.119C652.793 429.479 650.31 434.025 650.165 434.222C650.021 434.419 641.494 432.396 631.219 429.729C470.128 387.83 372.495 406.46 308.773 491.27C252.014 566.79 263.734 681.739 333.802 736.737C339.228 741.007 346.573 747.458 350.133 751.085L356.584 757.68L345.574 765.839C221.165 858.125 226.788 1052.65 357.057 1162.61C364.415 1168.82 377.264 1180.78 385.594 1189.19L400.769 1204.48L400.414 1213.94C398.339 1268.64 427.94 1332.02 470.522 1364.01C474.358 1366.89 491.176 1382.72 507.901 1399.18C562.82 1453.25 586.719 1465.66 640.811 1468.28L658.337 1469.13L662.463 1485.25C676.245 1539.1 713.703 1597.14 746.55 1615.51C749.217 1617.01 749.742 1616.52 737.826 1623.68C706.241 1642.64 679.49 1670.36 665.143 1699.06C629.761 1769.76 657.155 1871.76 724.451 1919.85C728.458 1922.73 745.972 1939.13 763.367 1956.31C821.006 2013.21 857.951 2029.33 930.647 2029.33C1064.12 2029.33 1145.76 1951.37 1207.38 1765.07L1217.34 1734.98L1234.91 1752.99C1278.14 1797.27 1321.32 1810.66 1378.93 1797.62C1415.64 1789.33 1464.6 1764.88 1464.79 1754.75C1464.95 1745.65 1465.89 1745.15 1472.65 1750.52C1527.87 1794.31 1609.91 1792.59 1670.4 1746.38L1677.19 1741.19L1692.91 1757.01C1725.27 1789.58 1748.84 1802.1 1784.04 1805.44C1819.59 1808.8 1867.48 1794.89 1897.4 1772.5L1902.47 1768.71L1909.55 1772.98C1986.55 1819.35 2090.69 1809.18 2154.12 1749.09L2162.1 1741.53L2171.47 1750.71C2243.85 1821.51 2376.79 1818.54 2448.33 1744.5C2457.96 1734.53 2470.88 1718.07 2472.35 1713.86C2472.63 1713.08 2480.21 1719.58 2489.18 1728.33C2528.98 1767.08 2569.44 1782.79 2633.8 1784.44C2688.53 1785.86 2746.54 1766.26 2785.25 1733.26L2790.11 1729.12L2807.21 1745.78C2909.46 1845.41 3085.93 1808.15 3129.29 1677.76C3146.88 1624.85 3139.04 1576.99 3101.56 1508.52C3090.52 1488.37 3090.55 1490.27 3101.24 1486.87C3185.63 1460.04 3225.72 1411.86 3210.61 1355.46C3203.56 1329.15 3197.28 1320.26 3156.87 1279.35C3138.36 1260.61 3120.74 1241.99 3117.7 1237.99C3068.11 1172.32 2954.37 1168.08 2889.46 1229.45C2868.44 1249.34 2840.6 1293.96 2840.6 1307.78C2840.6 1309.93 2842.1 1311.37 2796.03 1265.25C2759.97 1229.14 2752.83 1221.47 2755.93 1222.09C2795.09 1230 2853.89 1216.32 2886.02 1191.86C2888.8 1189.73 2901.5 1181.78 2914.2 1174.17C2926.92 1166.58 2938.01 1159.82 2938.84 1159.18C2939.97 1158.31 2936.67 1154.18 2926.06 1143.19C2903.57 1119.9 2888.24 1096.14 2883.68 1077.55C2875.26 1043.22 2896.31 954.89 2928.96 887.45C2954.08 835.566 2955.32 785.442 2932.58 741.415C2924.57 725.898 2914.9 714.638 2883.29 684.065C2867.53 668.837 2853.21 653.886 2850.65 650.01C2831.44 620.908 2796.19 599.203 2761.25 594.946C2743.12 592.739 2729.38 594.985 2704.31 604.248L2692.72 608.531L2683.49 604.327C2608.77 570.285 2512.11 599.505 2425.75 682.252L2412.23 695.22L2392.72 675.853C2382 665.198 2369.77 651.836 2365.55 646.147C2309.24 570.324 2202.21 560.326 2134.35 624.547L2122.87 635.413L2115.74 628.187C2087.56 599.571 2045.48 587.759 2006.76 597.6C1990.51 601.739 1941.58 622.222 1941.58 624.889C1941.58 625.335 1943.17 630.446 1945.09 636.227C1947.02 642.021 1949 649.208 1949.49 652.23L1950.38 657.696L1929.26 636.963C1889.28 597.705 1850.23 578.549 1810.81 578.851C1757.5 579.259 1704.57 599.295 1659.07 636.293C1646.36 646.646 1648.49 646.594 1641.9 636.714C1618.54 601.607 1577.6 582.859 1523.71 582.556C1482.73 582.333 1451.74 594.959 1420.1 624.744L1409.02 635.15L1400.61 626.886C1372.26 599.032 1328.71 587.418 1291.73 597.837C1274.17 602.79 1227.49 622.445 1227.49 624.889C1227.49 625.322 1228.85 629.606 1230.52 634.388C1232.19 639.184 1234.34 646.594 1235.32 650.864L1237.08 658.642L1214.94 636.779C1192.17 614.273 1185.65 609.123 1167.88 599.531C1143.98 586.642 1119.29 579.009 1100.73 578.772L1088.93 578.628L1089.78 573.149C1091.46 562.244 1090.58 528.058 1088.35 517.337C1079.9 476.831 1069.93 460.762 1024.9 415C1007.45 397.277 991.295 380.302 989.008 377.293C952.536 329.298 880.852 299.697 819.942 307.488ZM3046.81 351.186C3121.7 358.925 3208.96 384.191 3248.22 409.509C3290.07 436.508 3292.41 466.543 3255.59 504.237C3191.03 570.324 3081.03 611.146 3015.17 593.461C2931.96 571.113 2864.31 454.285 2895.98 387.633C2911.78 354.353 2961.39 342.37 3046.81 351.186ZM864.56 353.564C926.679 363.642 967.12 404.384 973.4 463.232C982.176 545.492 888.564 601.844 787.135 575.37C779.422 573.359 771.907 571.428 770.449 571.087C761.738 569.05 767.9 658.313 781.643 733.348C796.332 813.519 799.813 876.387 793.06 939.321C788.895 978.119 774.929 1032.72 769.319 1032.16C768.057 1032.04 757.166 1030.57 745.131 1028.89C584.551 1006.52 479.009 1042.45 421.581 1139L415.892 1148.55L412.633 1146.83C312.399 1094 268.753 938.033 328.218 845.157C385.2 756.182 527.609 731.705 599.358 798.567C657.746 852.961 650.034 937.691 585.156 954.785C564.699 960.158 502.199 952.669 507.52 945.469C542.718 897.816 544.085 865.732 510.923 865.732C456.477 865.732 441.105 962.431 489.586 999.942C545.188 1042.94 645.632 1006.09 674.944 931.937C691.42 890.301 692.327 840.046 678.807 717.923C670.412 641.916 668.848 620.606 668.809 581.4C668.782 551.379 668.559 547.595 666.812 547.043C649.167 541.446 597.125 537.412 579.388 540.277C514.549 550.722 464.426 644.807 501.319 686.824L505.05 691.081L496.746 696.441C442.734 731.272 388.813 728.985 350.921 690.24C311.02 649.458 305.935 574.121 339.833 526.008C396.906 445.022 481.598 433.342 654.317 482.638C667.258 486.343 677.993 489.194 678.15 488.984C678.308 488.773 679.398 485.042 680.581 480.693C703.258 397.053 784.888 340.636 864.56 353.564ZM866.781 425.958C835.524 432.422 797.974 467.699 783.416 504.251C778.831 515.76 778.489 515.353 794.4 517.665C823.568 521.896 847.073 521.318 869.5 515.826C888.288 511.214 905.434 489.549 905.329 470.576C905.158 441.186 888.17 421.53 866.781 425.958ZM1104.61 623.601C1187.02 636.267 1217.08 700.908 1177.61 780.567C1139.83 856.824 1068.48 878.502 1018.1 829.009C1008.36 819.458 1008.55 819.182 1008.52 843.33C1008.48 878.607 1019.81 899.958 1045.19 912.465C1081.58 930.413 1140.82 919.954 1175.46 889.473L1180.91 884.677L1181.72 897.711C1182.39 908.406 1180.81 940.175 1179.54 941.436C1179.36 941.633 1174.05 939.347 1167.76 936.378C1097.82 903.321 988.47 933.658 878.947 1016.51C865.059 1027.02 866.163 1026.84 861.63 1019.33C827.615 963.01 831.74 880.026 872.837 793.798C926.482 681.24 1022.22 610.936 1104.61 623.601ZM1826.62 624.849C1905.65 640.97 1932.15 713.587 1886.79 789.699C1845.09 859.635 1780.65 876.321 1732.8 829.548C1722.21 819.208 1722.38 818.998 1722.38 842.384C1722.38 871.237 1727.08 885.348 1741.61 899.944C1773.52 932.016 1843.33 927.509 1888.22 890.459C1891.32 887.896 1894.2 885.794 1894.61 885.794C1896.58 885.794 1895.28 929.795 1892.91 943.643C1874.74 1049.93 1762.69 1110.9 1650.84 1075.34C1552.88 1044.19 1524.42 933.054 1581.6 804.926C1589.15 787.991 1589.13 787.833 1579.97 796.57C1550.08 825.107 1510.32 832.662 1466.63 818.117L1456.99 814.899L1461.64 812.507C1494.03 795.9 1502.32 730.969 1472.81 725.044C1449.44 720.353 1421.56 741.651 1390.61 787.873C1354.34 842.043 1326.16 961.183 1336.18 1017.99L1338.15 1029.15L1334.58 1041.1C1331.46 1051.55 1318 1091.86 1315.66 1097.77C1315.07 1099.26 1313.62 1096.44 1310.88 1088.44C1302.42 1063.85 1292.1 1050.18 1254.95 1014.34C1240.49 1000.39 1225.69 985.017 1222.03 980.182C1214.53 970.209 1199.25 955.166 1190.53 949.161C1183.5 944.326 1183.49 944.681 1191.67 920.033C1199.96 895.031 1206.14 881.104 1235.44 821.323C1284.9 720.367 1295.04 687.139 1286.48 654.24C1285.48 650.391 1284.65 646.804 1284.65 646.265C1284.65 641.614 1315.58 637.738 1329.72 640.602C1364.82 647.724 1399.01 685.681 1399.01 717.542C1399.01 722.272 1400.49 720.721 1410.91 705.139C1444.13 655.488 1479.02 629.5 1515.81 627.043C1586.14 622.353 1632.72 670.558 1616.91 731.705C1613.47 745.001 1613.98 745.645 1620.46 736.107C1675.47 655.094 1757.61 610.765 1826.62 624.849ZM2251.36 627.99C2306.44 635.649 2347.29 678.704 2349.97 731.902C2351.02 752.871 2347.27 768.94 2335.21 795.164C2323.9 819.773 2310.71 865.469 2304.81 900.457C2292.25 974.939 2299.28 1031.83 2325.36 1066.95L2331.15 1074.75L2328.27 1077.04C2237.38 1149.33 2149.05 1122.14 2131.94 1016.61C2123.69 965.782 2135.08 925.302 2187.93 817.671C2232.78 726.332 2239.23 707.872 2231.56 692.868C2225.11 680.242 2205.19 680.623 2184.71 693.761C2155.21 712.681 2095.24 796.202 2078.54 841.609C2040.24 945.772 2037.7 1031.4 2071.8 1068.71L2078.02 1075.51L2069.34 1081.13C1950.16 1158.22 1854.63 1055.68 1909.23 909.26C1917.98 885.781 1925.85 868.53 1953.77 811.588C1998.26 720.853 2008.28 687.533 2000.72 655.489C1999.64 650.943 1998.76 646.764 1998.76 646.213C1998.76 639.735 2036.41 637.436 2053.06 642.902C2083.48 652.9 2113.12 690.03 2113.12 718.146C2113.12 722.219 2114.9 720.34 2123.18 707.543C2162.03 647.526 2204.09 621.42 2251.36 627.99ZM2630.75 635.216C2667.34 639.289 2694.76 658.471 2711.43 691.646C2716.77 702.262 2716.94 702.157 2719 687.284C2720.54 676.09 2719.72 661.269 2717.07 652.44C2715.06 645.779 2715.11 645.713 2724.45 642.403C2749.39 633.56 2779.92 641.115 2801.56 661.467C2835.4 693.288 2841.28 742.466 2817.01 790.632C2801.63 821.205 2782.68 875.112 2774.37 912.019C2758.18 983.821 2762.94 1036.59 2788.45 1068.24C2791.8 1072.4 2794.38 1075.96 2794.15 1076.16C2789.41 1080.35 2762.16 1094.71 2751.45 1098.67C2673.48 1127.45 2613.63 1081.16 2609.15 988.59L2608.85 982.507L2601.32 994.765C2562.95 1057.21 2512.45 1087.8 2457.5 1081.83C2357.69 1071.01 2318.3 968.488 2366.61 845.262C2412.28 728.789 2519.39 638.172 2616.15 634.151C2618.16 634.059 2624.73 634.546 2630.75 635.216ZM1102.68 672.28C1070.35 679.309 1035.76 720.248 1018.31 772.093C1011.72 791.657 1011.73 791.617 1020.37 793.404C1054.86 800.578 1091.92 775.719 1113.79 730.759C1127.75 702.012 1129.32 677.207 1117.46 672.253C1112.48 670.177 1112.35 670.177 1102.68 672.28ZM1818.72 671.701C1783.46 677.785 1733.35 741.756 1727.26 788.464C1725.79 799.763 1765.4 795.388 1785.49 782.026C1824.95 755.801 1855.75 680.544 1830.62 671.78C1826.5 670.348 1826.58 670.348 1818.72 671.701ZM635.595 731.902C637.289 745.29 639.011 758.153 639.405 760.479L640.114 764.722L637.408 762.305C623.1 749.508 605.836 728.71 605.836 724.269C605.836 714.008 612.339 698.596 622.39 685.077L628.276 677.167L630.379 692.368C631.548 700.738 633.887 718.527 635.595 731.902ZM2628.32 680.964C2551.58 700.317 2492.24 841.793 2540.36 890.669C2565.1 915.816 2607.63 908.997 2637.52 875.113C2642.88 869.029 2671.39 811.601 2677.21 795.164C2696.06 741.874 2687.71 695.509 2657.16 683.75C2650.38 681.148 2633.92 679.558 2628.32 680.964ZM641.31 782.315C641.678 786.178 641.454 786.835 640.154 785.757C637.066 783.195 635.857 779.74 637.644 778.61C640.377 776.876 640.837 777.336 641.31 782.315ZM1509.52 881.327C1511.94 883.902 1512.05 884.717 1510.94 890.616C1510.27 894.177 1509.72 898.92 1509.72 901.166C1509.72 906.211 1509.11 906.225 1500.89 901.35L1494.29 897.448L1499.82 887.975C1506.04 877.333 1505.88 877.451 1509.52 881.327ZM1441.03 911.992C1498.97 922.096 1536.73 979.038 1524.56 1037.99C1520.17 1059.26 1511.06 1078.81 1466.81 1161.95C1407.56 1273.22 1374.27 1345.55 1353.42 1408.3C1316.12 1520.49 1319.76 1601.88 1364.15 1648.25C1369.93 1654.29 1370.47 1653.48 1354.6 1662.57C1277.75 1706.66 1210.91 1694.49 1181.15 1630.99C1154.76 1574.7 1167.36 1511.36 1228.96 1390.66C1364.47 1125.06 1403.12 1024.75 1403.24 938.414L1403.27 912.557L1406.92 911.979C1408.93 911.651 1411.94 911.178 1413.61 910.928C1420.66 909.851 1431 910.245 1441.03 911.992ZM1132.25 968.541C1218.32 988.761 1233.19 1093.4 1156.41 1138.53C1114.69 1163.04 1038 1171.83 941.342 1163.18L928.821 1162.05L925.576 1165.95C901.952 1194.26 870.919 1259.61 862.077 1299.65C841.16 1394.31 876.871 1454.96 951.931 1452.26C1007.35 1450.28 1039.64 1434.37 1069.98 1394.1C1085 1374.15 1087.64 1368.65 1102.7 1325.75C1126 1259.38 1140.4 1232.93 1163.46 1214.14C1194.65 1188.73 1239.94 1192.91 1259.24 1222.98C1271.76 1242.49 1251.79 1287.48 1213.76 1325.44C1198.88 1340.28 1199.54 1339.13 1187.28 1372.6C1173.08 1411.38 1161.54 1450.33 1136.37 1544.69C1086.1 1733.07 1055.15 1805.09 1001.25 1858.98C910.322 1949.91 752.331 1932.08 706.477 1825.71C674.734 1752.07 704.322 1673.03 772.393 1649.6C776.019 1648.37 779.068 1647.48 779.186 1647.65C779.304 1647.82 781.183 1653.41 783.364 1660.08C797.553 1703.47 816.92 1719.67 854.614 1719.7C926.101 1719.74 977.197 1667.6 1026.7 1544.11C1032.17 1530.5 1036.39 1519.1 1036.07 1518.8C1035.77 1518.49 1027.94 1526.01 1018.66 1535.51C946.085 1609.81 871.681 1629.92 798.657 1594.97C671.975 1534.35 662.213 1314.56 779.974 1174.83C795.451 1156.46 795.951 1155.8 795.044 1154.9C792.876 1152.73 751.253 1154.2 738.758 1156.88C651.742 1175.55 601.999 1257.67 631.18 1334.46L633.545 1340.69L622.43 1344.99C549.064 1373.29 477.998 1339.06 452.561 1263.16C432.065 1202 455.228 1142.48 515.061 1102.53C580.623 1058.76 657.037 1054.01 819.18 1083.56C839.163 1087.2 856.309 1090.18 857.281 1090.18C858.24 1090.18 863.785 1085.92 869.605 1080.73C962.232 997.879 1066.85 953.182 1132.25 968.541ZM1100.36 1017.86C1072.65 1024.81 1013.75 1066.52 976.961 1105.21C971.836 1110.61 971.416 1110.23 985.409 1112.85C1015.34 1118.48 1069.6 1114.76 1092.32 1105.52C1134.44 1088.42 1159.68 1034.63 1132.6 1019.69C1125.81 1015.94 1111.28 1015.12 1100.36 1017.86ZM1662.27 1167.96C1684.23 1182.78 1710.83 1192.86 1742.69 1198.44C1752.48 1200.16 1754.13 1200.74 1751.2 1201.38C1738.12 1204.27 1726.76 1207.61 1718.07 1211.1C1709.57 1214.51 1707.7 1214.89 1705.81 1213.56C1686.32 1199.91 1638.8 1193.07 1606.1 1199.2L1602.04 1199.96L1611.76 1180.05C1617.12 1169.09 1623.22 1155.63 1625.33 1150.15L1629.16 1140.17L1641.4 1151.15C1648.13 1157.18 1657.52 1164.75 1662.27 1167.96ZM1959.13 1172.66C1970.55 1183.91 1983.06 1195.47 1986.91 1198.36L1993.91 1203.62L1985.2 1208.99C1954.46 1227.94 1928.59 1259.14 1914.76 1293.94C1912.64 1299.3 1910.7 1303.89 1910.47 1304.15C1909.42 1305.28 1865.35 1261.58 1860.92 1255.01C1846.05 1232.95 1821.24 1214.18 1796.67 1206.39L1788.16 1203.69L1801.47 1202.88C1844.97 1200.24 1892.98 1183.72 1926.98 1159.69C1932.67 1155.67 1937.56 1152.35 1937.84 1152.31C1938.12 1152.26 1947.7 1161.41 1959.13 1172.66ZM2693.01 1190.73C2692.84 1190.9 2688.61 1189.98 2683.62 1188.68C2634.55 1175.93 2555.78 1202.8 2502.58 1250.43L2494.24 1257.89L2488.83 1252.2C2485.84 1249.06 2481.13 1243.46 2478.34 1239.75C2464.09 1220.71 2441.13 1203.87 2417.85 1195.36C2414.52 1194.14 2411.57 1193 2411.32 1192.82C2411.09 1192.63 2413.33 1189.58 2416.34 1186.04C2422.39 1178.9 2435.08 1161.39 2435.81 1159.17C2436.09 1158.35 2439.1 1160.13 2442.89 1163.32C2500.32 1211.72 2586.14 1211.91 2650.96 1163.77L2659.93 1157.09L2676.62 1173.76C2685.8 1182.92 2693.18 1190.56 2693.01 1190.73ZM2233.68 1214.57C2239.3 1218.29 2245.8 1222.23 2248.15 1223.31L2252.41 1225.29L2242.43 1235.71C2236.93 1241.44 2229.04 1251.14 2224.89 1257.26C2220.73 1263.38 2217.17 1268.61 2216.98 1268.86C2216.12 1269.94 2193.75 1247.59 2189.92 1241.85C2183.49 1232.18 2167.79 1217.35 2155.79 1209.58L2144.98 1202.59L2157.93 1195.69C2165.07 1191.9 2175.54 1186.09 2181.19 1182.77L2191.49 1176.73L2207.48 1192.26C2216.27 1200.8 2228.07 1210.84 2233.68 1214.57ZM2671.05 1229.52C2754.12 1243.99 2779.82 1319.18 2728.17 1396.66C2687.85 1457.18 2629.58 1469.54 2585.59 1426.93L2576.93 1418.55L2576.17 1422.4C2573.33 1436.54 2576.21 1464.55 2581.78 1477.03C2602.28 1522.99 2679.77 1528.34 2732.09 1487.4L2740.69 1480.67L2741.55 1486.38C2744.2 1504.07 2739.75 1542.8 2732.7 1563.4C2703.58 1648.49 2599.98 1693.87 2506.35 1662.53C2419.05 1633.33 2390.06 1544.73 2430.11 1429.59C2474.37 1302.38 2580.99 1213.84 2671.05 1229.52ZM2090.82 1230.17C2182.83 1242.74 2202.17 1349.87 2116.72 1373.56C2106.02 1376.52 2106.4 1376.8 2108.94 1368.04C2116.93 1340.6 2098.77 1310.8 2075.51 1313.2C2054.44 1315.39 2038.86 1346.48 2040.45 1383.22C2041.46 1406.48 2046.11 1419.63 2070.21 1467.31C2099.82 1525.9 2103.18 1558.11 2084.24 1601.92C2052.29 1675.84 1958.59 1709.78 1879.68 1676C1806.28 1644.59 1789.65 1569.73 1837.8 1487.58L1843.42 1478L1846.02 1487.01C1858.31 1529.61 1901.77 1535.97 1935.94 1500.15C1958.7 1476.32 1964.64 1447.72 1953.75 1414.44C1920.76 1313.59 1992.78 1216.75 2090.82 1230.17ZM2392.78 1232.46C2474.36 1252.69 2487.24 1347.55 2411.76 1372.14C2397.89 1376.66 2396.36 1376.76 2397.76 1373.09C2416.47 1323.87 2361.37 1289.19 2339.31 1336.3C2323.15 1370.86 2326.97 1400.54 2354.66 1455.5C2388.82 1523.29 2393.11 1547.25 2378.8 1590.13C2358.37 1651.4 2304.22 1688.07 2234.16 1688.07C2139.51 1688.07 2083.06 1623.31 2105.29 1540.23C2110.94 1519.11 2132.02 1475.16 2134.01 1480.34C2134.47 1481.54 2135.82 1485.78 2137 1489.77C2147.32 1524.42 2183.29 1533.68 2215.48 1509.95C2245.45 1487.87 2256.37 1451.28 2243.99 1414.38C2236.99 1393.49 2235.65 1385.91 2235.57 1366.94C2235.2 1277.14 2311.13 1212.2 2392.78 1232.46ZM3033.1 1232.38C3117.98 1254.54 3127.86 1351.45 3047.5 1373.55C3036.68 1376.52 3037.35 1376.99 3039.69 1368.1C3052.05 1320.98 3003.71 1292.18 2981.31 1333.33C2962.79 1367.37 2966.9 1398.21 2998.47 1462.02C3029.35 1524.46 3033.33 1548.9 3019.36 1590.59C2993.65 1667.31 2905.77 1707.61 2822.97 1680.62C2739.33 1653.36 2716.77 1569.25 2770.37 1484.57L2774.46 1478.12L2775.89 1484.31C2785.81 1527.3 2830.56 1536.35 2864.92 1502.31C2889.47 1477.98 2895.91 1448.35 2884.28 1413.16C2849.9 1309.16 2934.33 1206.59 3033.1 1232.38ZM1667.64 1243.36C1694.25 1251.1 1714.05 1267.68 1727.42 1293.38C1732.7 1303.53 1732.8 1303.63 1733.86 1300.03C1736.09 1292.5 1736.36 1268.86 1734.29 1260.11C1733.22 1255.55 1732.34 1251.32 1732.34 1250.72C1732.34 1243.94 1770.8 1242.02 1786.72 1248C1842.07 1268.84 1858.47 1327.95 1827.3 1394.3C1774.42 1506.87 1764.75 1611.8 1803.05 1657.37L1807.9 1663.14L1800.22 1668.13C1716.9 1722.33 1636.9 1684.45 1630.47 1587.75L1629.54 1573.77L1623.55 1583.49C1577.38 1658.26 1515.37 1685.77 1449.86 1660.55C1348.85 1621.66 1354.43 1460.16 1461.05 1336.66C1521.32 1266.85 1610.3 1226.66 1667.64 1243.36ZM2659.79 1277.32C2630.91 1287.31 2600.03 1326.42 2584.59 1372.56C2578.81 1389.84 2578.83 1390.08 2586.51 1391.92C2622.81 1400.63 2666.36 1366.94 2683.03 1317.26C2694.37 1283.51 2685.58 1268.42 2659.79 1277.32ZM1070.27 1279.35C1071.99 1280.71 1046.32 1349.73 1041.55 1356.6C1023.76 1382.16 997.614 1400.73 970.693 1406.91L967.553 1407.63L968.565 1400.06C972.743 1368.68 989.823 1325.55 1012.13 1290.03L1019.95 1277.59L1044.94 1278.33C1058.7 1278.74 1070.09 1279.2 1070.27 1279.35ZM1643.53 1285.3C1595.06 1299.54 1547.12 1375.26 1547.16 1437.5C1547.21 1501.77 1604.69 1521.23 1654.07 1473.69C1666.7 1461.54 1696.16 1396.86 1702.01 1368.49C1713.72 1311.59 1686.39 1272.7 1643.53 1285.3ZM315.815 1388.93C311.808 1455.82 279.697 1503.41 232.964 1511.71C227.616 1512.66 222.965 1513.51 222.624 1513.59C222.295 1513.69 226.184 1514.5 231.269 1515.42C286.306 1525.39 324.329 1571.48 324.014 1627.89L323.935 1643.09L328.56 1625.36C344.089 1565.81 374.952 1527.55 414.841 1518.4C428.386 1515.29 428.36 1515.38 416.325 1512.57C359.659 1499.35 322.201 1452.08 321.912 1393.4C321.833 1375.32 321.754 1374.85 319.244 1374.85C316.801 1374.85 316.604 1375.64 315.815 1388.93ZM465.49 1604.62C462.796 1621.42 450.249 1635.15 425.181 1648.75L415.445 1654.03L422.461 1654.78C444.323 1657.16 458.592 1672.7 469.208 1705.74C469.536 1706.74 470.85 1703.46 472.138 1698.44C477.827 1676.25 488.522 1663.78 505.536 1659.5L513.261 1657.55L505.799 1654.01C487.825 1645.48 471.231 1622.83 469.339 1604.25C468.787 1598.89 466.37 1599.11 465.49 1604.62ZM218.59 1621.5C218.038 1623.01 217.158 1631.22 216.632 1639.75C214.464 1674.97 187.333 1711.81 155.407 1722.89C149.126 1725.08 149.678 1726.37 156.3 1724.97C179.411 1720.04 198.488 1740.48 212.73 1785.44C221.021 1811.64 222.019 1812.78 222.019 1796.09C222.019 1768.77 236.971 1742.77 260.121 1729.83C267.465 1725.73 268.057 1723.99 262.105 1723.99C236.196 1723.99 213.978 1683.44 218.905 1645.14C220.548 1632.31 220.337 1616.67 218.59 1621.5Z"/>
</mask>
<path fill-rule="evenodd" clip-rule="evenodd" d="M2307.59 137.37C2285.65 148.774 2283.42 178.454 2300.97 225.529C2349.44 355.496 2428.94 470.077 2490.75 499.035C2568.46 535.428 2656.03 511.017 2736.59 430.465C2778.05 389.026 2788.66 381.077 2804.1 379.96C2823.54 378.554 2835.45 396.16 2848.52 445.64C2879 561.009 2942.48 627.753 3029.98 636.438C3098.35 643.217 3196.73 597.547 3312.59 505.236C3371.74 458.121 3389.67 423.632 3366.13 402.361C3346.62 384.729 3221.21 344.473 3140.28 329.836C3045.26 312.677 2979.62 311.285 2887.44 324.502C2834.21 332.136 2814.97 327.629 2775.54 298.37C2654.01 208.173 2531.79 160.586 2362.75 137.659C2327.33 132.863 2316.4 132.797 2307.59 137.37ZM2446.44 197.308C2555.14 207.201 2706.89 272.211 2728.47 318.117C2756.67 378.094 2667.03 466.937 2571.14 474.045C2506.39 478.854 2439.24 429.873 2389.7 341.714C2331.97 238.97 2351.73 188.689 2446.44 197.308ZM819.942 307.488C752.712 316.08 690.001 360.607 655.683 424.119C652.793 429.479 650.31 434.025 650.165 434.222C650.021 434.419 641.494 432.396 631.219 429.729C470.128 387.83 372.495 406.46 308.773 491.27C252.014 566.79 263.734 681.739 333.802 736.737C339.228 741.007 346.573 747.458 350.133 751.085L356.584 757.68L345.574 765.839C221.165 858.125 226.788 1052.65 357.057 1162.61C364.415 1168.82 377.264 1180.78 385.594 1189.19L400.769 1204.48L400.414 1213.94C398.339 1268.64 427.94 1332.02 470.522 1364.01C474.358 1366.89 491.176 1382.72 507.901 1399.18C562.82 1453.25 586.719 1465.66 640.811 1468.28L658.337 1469.13L662.463 1485.25C676.245 1539.1 713.703 1597.14 746.55 1615.51C749.217 1617.01 749.742 1616.52 737.826 1623.68C706.241 1642.64 679.49 1670.36 665.143 1699.06C629.761 1769.76 657.155 1871.76 724.451 1919.85C728.458 1922.73 745.972 1939.13 763.367 1956.31C821.006 2013.21 857.951 2029.33 930.647 2029.33C1064.12 2029.33 1145.76 1951.37 1207.38 1765.07L1217.34 1734.98L1234.91 1752.99C1278.14 1797.27 1321.32 1810.66 1378.93 1797.62C1415.64 1789.33 1464.6 1764.88 1464.79 1754.75C1464.95 1745.65 1465.89 1745.15 1472.65 1750.52C1527.87 1794.31 1609.91 1792.59 1670.4 1746.38L1677.19 1741.19L1692.91 1757.01C1725.27 1789.58 1748.84 1802.1 1784.04 1805.44C1819.59 1808.8 1867.48 1794.89 1897.4 1772.5L1902.47 1768.71L1909.55 1772.98C1986.55 1819.35 2090.69 1809.18 2154.12 1749.09L2162.1 1741.53L2171.47 1750.71C2243.85 1821.51 2376.79 1818.54 2448.33 1744.5C2457.96 1734.53 2470.88 1718.07 2472.35 1713.86C2472.63 1713.08 2480.21 1719.58 2489.18 1728.33C2528.98 1767.08 2569.44 1782.79 2633.8 1784.44C2688.53 1785.86 2746.54 1766.26 2785.25 1733.26L2790.11 1729.12L2807.21 1745.78C2909.46 1845.41 3085.93 1808.15 3129.29 1677.76C3146.88 1624.85 3139.04 1576.99 3101.56 1508.52C3090.52 1488.37 3090.55 1490.27 3101.24 1486.87C3185.63 1460.04 3225.72 1411.86 3210.61 1355.46C3203.56 1329.15 3197.28 1320.26 3156.87 1279.35C3138.36 1260.61 3120.74 1241.99 3117.7 1237.99C3068.11 1172.32 2954.37 1168.08 2889.46 1229.45C2868.44 1249.34 2840.6 1293.96 2840.6 1307.78C2840.6 1309.93 2842.1 1311.37 2796.03 1265.25C2759.97 1229.14 2752.83 1221.47 2755.93 1222.09C2795.09 1230 2853.89 1216.32 2886.02 1191.86C2888.8 1189.73 2901.5 1181.78 2914.2 1174.17C2926.92 1166.58 2938.01 1159.82 2938.84 1159.18C2939.97 1158.31 2936.67 1154.18 2926.06 1143.19C2903.57 1119.9 2888.24 1096.14 2883.68 1077.55C2875.26 1043.22 2896.31 954.89 2928.96 887.45C2954.08 835.566 2955.32 785.442 2932.58 741.415C2924.57 725.898 2914.9 714.638 2883.29 684.065C2867.53 668.837 2853.21 653.886 2850.65 650.01C2831.44 620.908 2796.19 599.203 2761.25 594.946C2743.12 592.739 2729.38 594.985 2704.31 604.248L2692.72 608.531L2683.49 604.327C2608.77 570.285 2512.11 599.505 2425.75 682.252L2412.23 695.22L2392.72 675.853C2382 665.198 2369.77 651.836 2365.55 646.147C2309.24 570.324 2202.21 560.326 2134.35 624.547L2122.87 635.413L2115.74 628.187C2087.56 599.571 2045.48 587.759 2006.76 597.6C1990.51 601.739 1941.58 622.222 1941.58 624.889C1941.58 625.335 1943.17 630.446 1945.09 636.227C1947.02 642.021 1949 649.208 1949.49 652.23L1950.38 657.696L1929.26 636.963C1889.28 597.705 1850.23 578.549 1810.81 578.851C1757.5 579.259 1704.57 599.295 1659.07 636.293C1646.36 646.646 1648.49 646.594 1641.9 636.714C1618.54 601.607 1577.6 582.859 1523.71 582.556C1482.73 582.333 1451.74 594.959 1420.1 624.744L1409.02 635.15L1400.61 626.886C1372.26 599.032 1328.71 587.418 1291.73 597.837C1274.17 602.79 1227.49 622.445 1227.49 624.889C1227.49 625.322 1228.85 629.606 1230.52 634.388C1232.19 639.184 1234.34 646.594 1235.32 650.864L1237.08 658.642L1214.94 636.779C1192.17 614.273 1185.65 609.123 1167.88 599.531C1143.98 586.642 1119.29 579.009 1100.73 578.772L1088.93 578.628L1089.78 573.149C1091.46 562.244 1090.58 528.058 1088.35 517.337C1079.9 476.831 1069.93 460.762 1024.9 415C1007.45 397.277 991.295 380.302 989.008 377.293C952.536 329.298 880.852 299.697 819.942 307.488ZM3046.81 351.186C3121.7 358.925 3208.96 384.191 3248.22 409.509C3290.07 436.508 3292.41 466.543 3255.59 504.237C3191.03 570.324 3081.03 611.146 3015.17 593.461C2931.96 571.113 2864.31 454.285 2895.98 387.633C2911.78 354.353 2961.39 342.37 3046.81 351.186ZM864.56 353.564C926.679 363.642 967.12 404.384 973.4 463.232C982.176 545.492 888.564 601.844 787.135 575.37C779.422 573.359 771.907 571.428 770.449 571.087C761.738 569.05 767.9 658.313 781.643 733.348C796.332 813.519 799.813 876.387 793.06 939.321C788.895 978.119 774.929 1032.72 769.319 1032.16C768.057 1032.04 757.166 1030.57 745.131 1028.89C584.551 1006.52 479.009 1042.45 421.581 1139L415.892 1148.55L412.633 1146.83C312.399 1094 268.753 938.033 328.218 845.157C385.2 756.182 527.609 731.705 599.358 798.567C657.746 852.961 650.034 937.691 585.156 954.785C564.699 960.158 502.199 952.669 507.52 945.469C542.718 897.816 544.085 865.732 510.923 865.732C456.477 865.732 441.105 962.431 489.586 999.942C545.188 1042.94 645.632 1006.09 674.944 931.937C691.42 890.301 692.327 840.046 678.807 717.923C670.412 641.916 668.848 620.606 668.809 581.4C668.782 551.379 668.559 547.595 666.812 547.043C649.167 541.446 597.125 537.412 579.388 540.277C514.549 550.722 464.426 644.807 501.319 686.824L505.05 691.081L496.746 696.441C442.734 731.272 388.813 728.985 350.921 690.24C311.02 649.458 305.935 574.121 339.833 526.008C396.906 445.022 481.598 433.342 654.317 482.638C667.258 486.343 677.993 489.194 678.15 488.984C678.308 488.773 679.398 485.042 680.581 480.693C703.258 397.053 784.888 340.636 864.56 353.564ZM866.781 425.958C835.524 432.422 797.974 467.699 783.416 504.251C778.831 515.76 778.489 515.353 794.4 517.665C823.568 521.896 847.073 521.318 869.5 515.826C888.288 511.214 905.434 489.549 905.329 470.576C905.158 441.186 888.17 421.53 866.781 425.958ZM1104.61 623.601C1187.02 636.267 1217.08 700.908 1177.61 780.567C1139.83 856.824 1068.48 878.502 1018.1 829.009C1008.36 819.458 1008.55 819.182 1008.52 843.33C1008.48 878.607 1019.81 899.958 1045.19 912.465C1081.58 930.413 1140.82 919.954 1175.46 889.473L1180.91 884.677L1181.72 897.711C1182.39 908.406 1180.81 940.175 1179.54 941.436C1179.36 941.633 1174.05 939.347 1167.76 936.378C1097.82 903.321 988.47 933.658 878.947 1016.51C865.059 1027.02 866.163 1026.84 861.63 1019.33C827.615 963.01 831.74 880.026 872.837 793.798C926.482 681.24 1022.22 610.936 1104.61 623.601ZM1826.62 624.849C1905.65 640.97 1932.15 713.587 1886.79 789.699C1845.09 859.635 1780.65 876.321 1732.8 829.548C1722.21 819.208 1722.38 818.998 1722.38 842.384C1722.38 871.237 1727.08 885.348 1741.61 899.944C1773.52 932.016 1843.33 927.509 1888.22 890.459C1891.32 887.896 1894.2 885.794 1894.61 885.794C1896.58 885.794 1895.28 929.795 1892.91 943.643C1874.74 1049.93 1762.69 1110.9 1650.84 1075.34C1552.88 1044.19 1524.42 933.054 1581.6 804.926C1589.15 787.991 1589.13 787.833 1579.97 796.57C1550.08 825.107 1510.32 832.662 1466.63 818.117L1456.99 814.899L1461.64 812.507C1494.03 795.9 1502.32 730.969 1472.81 725.044C1449.44 720.353 1421.56 741.651 1390.61 787.873C1354.34 842.043 1326.16 961.183 1336.18 1017.99L1338.15 1029.15L1334.58 1041.1C1331.46 1051.55 1318 1091.86 1315.66 1097.77C1315.07 1099.26 1313.62 1096.44 1310.88 1088.44C1302.42 1063.85 1292.1 1050.18 1254.95 1014.34C1240.49 1000.39 1225.69 985.017 1222.03 980.182C1214.53 970.209 1199.25 955.166 1190.53 949.161C1183.5 944.326 1183.49 944.681 1191.67 920.033C1199.96 895.031 1206.14 881.104 1235.44 821.323C1284.9 720.367 1295.04 687.139 1286.48 654.24C1285.48 650.391 1284.65 646.804 1284.65 646.265C1284.65 641.614 1315.58 637.738 1329.72 640.602C1364.82 647.724 1399.01 685.681 1399.01 717.542C1399.01 722.272 1400.49 720.721 1410.91 705.139C1444.13 655.488 1479.02 629.5 1515.81 627.043C1586.14 622.353 1632.72 670.558 1616.91 731.705C1613.47 745.001 1613.98 745.645 1620.46 736.107C1675.47 655.094 1757.61 610.765 1826.62 624.849ZM2251.36 627.99C2306.44 635.649 2347.29 678.704 2349.97 731.902C2351.02 752.871 2347.27 768.94 2335.21 795.164C2323.9 819.773 2310.71 865.469 2304.81 900.457C2292.25 974.939 2299.28 1031.83 2325.36 1066.95L2331.15 1074.75L2328.27 1077.04C2237.38 1149.33 2149.05 1122.14 2131.94 1016.61C2123.69 965.782 2135.08 925.302 2187.93 817.671C2232.78 726.332 2239.23 707.872 2231.56 692.868C2225.11 680.242 2205.19 680.623 2184.71 693.761C2155.21 712.681 2095.24 796.202 2078.54 841.609C2040.24 945.772 2037.7 1031.4 2071.8 1068.71L2078.02 1075.51L2069.34 1081.13C1950.16 1158.22 1854.63 1055.68 1909.23 909.26C1917.98 885.781 1925.85 868.53 1953.77 811.588C1998.26 720.853 2008.28 687.533 2000.72 655.489C1999.64 650.943 1998.76 646.764 1998.76 646.213C1998.76 639.735 2036.41 637.436 2053.06 642.902C2083.48 652.9 2113.12 690.03 2113.12 718.146C2113.12 722.219 2114.9 720.34 2123.18 707.543C2162.03 647.526 2204.09 621.42 2251.36 627.99ZM2630.75 635.216C2667.34 639.289 2694.76 658.471 2711.43 691.646C2716.77 702.262 2716.94 702.157 2719 687.284C2720.54 676.09 2719.72 661.269 2717.07 652.44C2715.06 645.779 2715.11 645.713 2724.45 642.403C2749.39 633.56 2779.92 641.115 2801.56 661.467C2835.4 693.288 2841.28 742.466 2817.01 790.632C2801.63 821.205 2782.68 875.112 2774.37 912.019C2758.18 983.821 2762.94 1036.59 2788.45 1068.24C2791.8 1072.4 2794.38 1075.96 2794.15 1076.16C2789.41 1080.35 2762.16 1094.71 2751.45 1098.67C2673.48 1127.45 2613.63 1081.16 2609.15 988.59L2608.85 982.507L2601.32 994.765C2562.95 1057.21 2512.45 1087.8 2457.5 1081.83C2357.69 1071.01 2318.3 968.488 2366.61 845.262C2412.28 728.789 2519.39 638.172 2616.15 634.151C2618.16 634.059 2624.73 634.546 2630.75 635.216ZM1102.68 672.28C1070.35 679.309 1035.76 720.248 1018.31 772.093C1011.72 791.657 1011.73 791.617 1020.37 793.404C1054.86 800.578 1091.92 775.719 1113.79 730.759C1127.75 702.012 1129.32 677.207 1117.46 672.253C1112.48 670.177 1112.35 670.177 1102.68 672.28ZM1818.72 671.701C1783.46 677.785 1733.35 741.756 1727.26 788.464C1725.79 799.763 1765.4 795.388 1785.49 782.026C1824.95 755.801 1855.75 680.544 1830.62 671.78C1826.5 670.348 1826.58 670.348 1818.72 671.701ZM635.595 731.902C637.289 745.29 639.011 758.153 639.405 760.479L640.114 764.722L637.408 762.305C623.1 749.508 605.836 728.71 605.836 724.269C605.836 714.008 612.339 698.596 622.39 685.077L628.276 677.167L630.379 692.368C631.548 700.738 633.887 718.527 635.595 731.902ZM2628.32 680.964C2551.58 700.317 2492.24 841.793 2540.36 890.669C2565.1 915.816 2607.63 908.997 2637.52 875.113C2642.88 869.029 2671.39 811.601 2677.21 795.164C2696.06 741.874 2687.71 695.509 2657.16 683.75C2650.38 681.148 2633.92 679.558 2628.32 680.964ZM641.31 782.315C641.678 786.178 641.454 786.835 640.154 785.757C637.066 783.195 635.857 779.74 637.644 778.61C640.377 776.876 640.837 777.336 641.31 782.315ZM1509.52 881.327C1511.94 883.902 1512.05 884.717 1510.94 890.616C1510.27 894.177 1509.72 898.92 1509.72 901.166C1509.72 906.211 1509.11 906.225 1500.89 901.35L1494.29 897.448L1499.82 887.975C1506.04 877.333 1505.88 877.451 1509.52 881.327ZM1441.03 911.992C1498.97 922.096 1536.73 979.038 1524.56 1037.99C1520.17 1059.26 1511.06 1078.81 1466.81 1161.95C1407.56 1273.22 1374.27 1345.55 1353.42 1408.3C1316.12 1520.49 1319.76 1601.88 1364.15 1648.25C1369.93 1654.29 1370.47 1653.48 1354.6 1662.57C1277.75 1706.66 1210.91 1694.49 1181.15 1630.99C1154.76 1574.7 1167.36 1511.36 1228.96 1390.66C1364.47 1125.06 1403.12 1024.75 1403.24 938.414L1403.27 912.557L1406.92 911.979C1408.93 911.651 1411.94 911.178 1413.61 910.928C1420.66 909.851 1431 910.245 1441.03 911.992ZM1132.25 968.541C1218.32 988.761 1233.19 1093.4 1156.41 1138.53C1114.69 1163.04 1038 1171.83 941.342 1163.18L928.821 1162.05L925.576 1165.95C901.952 1194.26 870.919 1259.61 862.077 1299.65C841.16 1394.31 876.871 1454.96 951.931 1452.26C1007.35 1450.28 1039.64 1434.37 1069.98 1394.1C1085 1374.15 1087.64 1368.65 1102.7 1325.75C1126 1259.38 1140.4 1232.93 1163.46 1214.14C1194.65 1188.73 1239.94 1192.91 1259.24 1222.98C1271.76 1242.49 1251.79 1287.48 1213.76 1325.44C1198.88 1340.28 1199.54 1339.13 1187.28 1372.6C1173.08 1411.38 1161.54 1450.33 1136.37 1544.69C1086.1 1733.07 1055.15 1805.09 1001.25 1858.98C910.322 1949.91 752.331 1932.08 706.477 1825.71C674.734 1752.07 704.322 1673.03 772.393 1649.6C776.019 1648.37 779.068 1647.48 779.186 1647.65C779.304 1647.82 781.183 1653.41 783.364 1660.08C797.553 1703.47 816.92 1719.67 854.614 1719.7C926.101 1719.74 977.197 1667.6 1026.7 1544.11C1032.17 1530.5 1036.39 1519.1 1036.07 1518.8C1035.77 1518.49 1027.94 1526.01 1018.66 1535.51C946.085 1609.81 871.681 1629.92 798.657 1594.97C671.975 1534.35 662.213 1314.56 779.974 1174.83C795.451 1156.46 795.951 1155.8 795.044 1154.9C792.876 1152.73 751.253 1154.2 738.758 1156.88C651.742 1175.55 601.999 1257.67 631.18 1334.46L633.545 1340.69L622.43 1344.99C549.064 1373.29 477.998 1339.06 452.561 1263.16C432.065 1202 455.228 1142.48 515.061 1102.53C580.623 1058.76 657.037 1054.01 819.18 1083.56C839.163 1087.2 856.309 1090.18 857.281 1090.18C858.24 1090.18 863.785 1085.92 869.605 1080.73C962.232 997.879 1066.85 953.182 1132.25 968.541ZM1100.36 1017.86C1072.65 1024.81 1013.75 1066.52 976.961 1105.21C971.836 1110.61 971.416 1110.23 985.409 1112.85C1015.34 1118.48 1069.6 1114.76 1092.32 1105.52C1134.44 1088.42 1159.68 1034.63 1132.6 1019.69C1125.81 1015.94 1111.28 1015.12 1100.36 1017.86ZM1662.27 1167.96C1684.23 1182.78 1710.83 1192.86 1742.69 1198.44C1752.48 1200.16 1754.13 1200.74 1751.2 1201.38C1738.12 1204.27 1726.76 1207.61 1718.07 1211.1C1709.57 1214.51 1707.7 1214.89 1705.81 1213.56C1686.32 1199.91 1638.8 1193.07 1606.1 1199.2L1602.04 1199.96L1611.76 1180.05C1617.12 1169.09 1623.22 1155.63 1625.33 1150.15L1629.16 1140.17L1641.4 1151.15C1648.13 1157.18 1657.52 1164.75 1662.27 1167.96ZM1959.13 1172.66C1970.55 1183.91 1983.06 1195.47 1986.91 1198.36L1993.91 1203.62L1985.2 1208.99C1954.46 1227.94 1928.59 1259.14 1914.76 1293.94C1912.64 1299.3 1910.7 1303.89 1910.47 1304.15C1909.42 1305.28 1865.35 1261.58 1860.92 1255.01C1846.05 1232.95 1821.24 1214.18 1796.67 1206.39L1788.16 1203.69L1801.47 1202.88C1844.97 1200.24 1892.98 1183.72 1926.98 1159.69C1932.67 1155.67 1937.56 1152.35 1937.84 1152.31C1938.12 1152.26 1947.7 1161.41 1959.13 1172.66ZM2693.01 1190.73C2692.84 1190.9 2688.61 1189.98 2683.62 1188.68C2634.55 1175.93 2555.78 1202.8 2502.58 1250.43L2494.24 1257.89L2488.83 1252.2C2485.84 1249.06 2481.13 1243.46 2478.34 1239.75C2464.09 1220.71 2441.13 1203.87 2417.85 1195.36C2414.52 1194.14 2411.57 1193 2411.32 1192.82C2411.09 1192.63 2413.33 1189.58 2416.34 1186.04C2422.39 1178.9 2435.08 1161.39 2435.81 1159.17C2436.09 1158.35 2439.1 1160.13 2442.89 1163.32C2500.32 1211.72 2586.14 1211.91 2650.96 1163.77L2659.93 1157.09L2676.62 1173.76C2685.8 1182.92 2693.18 1190.56 2693.01 1190.73ZM2233.68 1214.57C2239.3 1218.29 2245.8 1222.23 2248.15 1223.31L2252.41 1225.29L2242.43 1235.71C2236.93 1241.44 2229.04 1251.14 2224.89 1257.26C2220.73 1263.38 2217.17 1268.61 2216.98 1268.86C2216.12 1269.94 2193.75 1247.59 2189.92 1241.85C2183.49 1232.18 2167.79 1217.35 2155.79 1209.58L2144.98 1202.59L2157.93 1195.69C2165.07 1191.9 2175.54 1186.09 2181.19 1182.77L2191.49 1176.73L2207.48 1192.26C2216.27 1200.8 2228.07 1210.84 2233.68 1214.57ZM2671.05 1229.52C2754.12 1243.99 2779.82 1319.18 2728.17 1396.66C2687.85 1457.18 2629.58 1469.54 2585.59 1426.93L2576.93 1418.55L2576.17 1422.4C2573.33 1436.54 2576.21 1464.55 2581.78 1477.03C2602.28 1522.99 2679.77 1528.34 2732.09 1487.4L2740.69 1480.67L2741.55 1486.38C2744.2 1504.07 2739.75 1542.8 2732.7 1563.4C2703.58 1648.49 2599.98 1693.87 2506.35 1662.53C2419.05 1633.33 2390.06 1544.73 2430.11 1429.59C2474.37 1302.38 2580.99 1213.84 2671.05 1229.52ZM2090.82 1230.17C2182.83 1242.74 2202.17 1349.87 2116.72 1373.56C2106.02 1376.52 2106.4 1376.8 2108.94 1368.04C2116.93 1340.6 2098.77 1310.8 2075.51 1313.2C2054.44 1315.39 2038.86 1346.48 2040.45 1383.22C2041.46 1406.48 2046.11 1419.63 2070.21 1467.31C2099.82 1525.9 2103.18 1558.11 2084.24 1601.92C2052.29 1675.84 1958.59 1709.78 1879.68 1676C1806.28 1644.59 1789.65 1569.73 1837.8 1487.58L1843.42 1478L1846.02 1487.01C1858.31 1529.61 1901.77 1535.97 1935.94 1500.15C1958.7 1476.32 1964.64 1447.72 1953.75 1414.44C1920.76 1313.59 1992.78 1216.75 2090.82 1230.17ZM2392.78 1232.46C2474.36 1252.69 2487.24 1347.55 2411.76 1372.14C2397.89 1376.66 2396.36 1376.76 2397.76 1373.09C2416.47 1323.87 2361.37 1289.19 2339.31 1336.3C2323.15 1370.86 2326.97 1400.54 2354.66 1455.5C2388.82 1523.29 2393.11 1547.25 2378.8 1590.13C2358.37 1651.4 2304.22 1688.07 2234.16 1688.07C2139.51 1688.07 2083.06 1623.31 2105.29 1540.23C2110.94 1519.11 2132.02 1475.16 2134.01 1480.34C2134.47 1481.54 2135.82 1485.78 2137 1489.77C2147.32 1524.42 2183.29 1533.68 2215.48 1509.95C2245.45 1487.87 2256.37 1451.28 2243.99 1414.38C2236.99 1393.49 2235.65 1385.91 2235.57 1366.94C2235.2 1277.14 2311.13 1212.2 2392.78 1232.46ZM3033.1 1232.38C3117.98 1254.54 3127.86 1351.45 3047.5 1373.55C3036.68 1376.52 3037.35 1376.99 3039.69 1368.1C3052.05 1320.98 3003.71 1292.18 2981.31 1333.33C2962.79 1367.37 2966.9 1398.21 2998.47 1462.02C3029.35 1524.46 3033.33 1548.9 3019.36 1590.59C2993.65 1667.31 2905.77 1707.61 2822.97 1680.62C2739.33 1653.36 2716.77 1569.25 2770.37 1484.57L2774.46 1478.12L2775.89 1484.31C2785.81 1527.3 2830.56 1536.35 2864.92 1502.31C2889.47 1477.98 2895.91 1448.35 2884.28 1413.16C2849.9 1309.16 2934.33 1206.59 3033.1 1232.38ZM1667.64 1243.36C1694.25 1251.1 1714.05 1267.68 1727.42 1293.38C1732.7 1303.53 1732.8 1303.63 1733.86 1300.03C1736.09 1292.5 1736.36 1268.86 1734.29 1260.11C1733.22 1255.55 1732.34 1251.32 1732.34 1250.72C1732.34 1243.94 1770.8 1242.02 1786.72 1248C1842.07 1268.84 1858.47 1327.95 1827.3 1394.3C1774.42 1506.87 1764.75 1611.8 1803.05 1657.37L1807.9 1663.14L1800.22 1668.13C1716.9 1722.33 1636.9 1684.45 1630.47 1587.75L1629.54 1573.77L1623.55 1583.49C1577.38 1658.26 1515.37 1685.77 1449.86 1660.55C1348.85 1621.66 1354.43 1460.16 1461.05 1336.66C1521.32 1266.85 1610.3 1226.66 1667.64 1243.36ZM2659.79 1277.32C2630.91 1287.31 2600.03 1326.42 2584.59 1372.56C2578.81 1389.84 2578.83 1390.08 2586.51 1391.92C2622.81 1400.63 2666.36 1366.94 2683.03 1317.26C2694.37 1283.51 2685.58 1268.42 2659.79 1277.32ZM1070.27 1279.35C1071.99 1280.71 1046.32 1349.73 1041.55 1356.6C1023.76 1382.16 997.614 1400.73 970.693 1406.91L967.553 1407.63L968.565 1400.06C972.743 1368.68 989.823 1325.55 1012.13 1290.03L1019.95 1277.59L1044.94 1278.33C1058.7 1278.74 1070.09 1279.2 1070.27 1279.35ZM1643.53 1285.3C1595.06 1299.54 1547.12 1375.26 1547.16 1437.5C1547.21 1501.77 1604.69 1521.23 1654.07 1473.69C1666.7 1461.54 1696.16 1396.86 1702.01 1368.49C1713.72 1311.59 1686.39 1272.7 1643.53 1285.3ZM315.815 1388.93C311.808 1455.82 279.697 1503.41 232.964 1511.71C227.616 1512.66 222.965 1513.51 222.624 1513.59C222.295 1513.69 226.184 1514.5 231.269 1515.42C286.306 1525.39 324.329 1571.48 324.014 1627.89L323.935 1643.09L328.56 1625.36C344.089 1565.81 374.952 1527.55 414.841 1518.4C428.386 1515.29 428.36 1515.38 416.325 1512.57C359.659 1499.35 322.201 1452.08 321.912 1393.4C321.833 1375.32 321.754 1374.85 319.244 1374.85C316.801 1374.85 316.604 1375.64 315.815 1388.93ZM465.49 1604.62C462.796 1621.42 450.249 1635.15 425.181 1648.75L415.445 1654.03L422.461 1654.78C444.323 1657.16 458.592 1672.7 469.208 1705.74C469.536 1706.74 470.85 1703.46 472.138 1698.44C477.827 1676.25 488.522 1663.78 505.536 1659.5L513.261 1657.55L505.799 1654.01C487.825 1645.48 471.231 1622.83 469.339 1604.25C468.787 1598.89 466.37 1599.11 465.49 1604.62ZM218.59 1621.5C218.038 1623.01 217.158 1631.22 216.632 1639.75C214.464 1674.97 187.333 1711.81 155.407 1722.89C149.126 1725.08 149.678 1726.37 156.3 1724.97C179.411 1720.04 198.488 1740.48 212.73 1785.44C221.021 1811.64 222.019 1812.78 222.019 1796.09C222.019 1768.77 236.971 1742.77 260.121 1729.83C267.465 1725.73 268.057 1723.99 262.105 1723.99C236.196 1723.99 213.978 1683.44 218.905 1645.14C220.548 1632.31 220.337 1616.67 218.59 1621.5Z" fill="#FF00B6"/>
<path fill-rule="evenodd" clip-rule="evenodd" d="M2307.59 137.37C2285.65 148.774 2283.42 178.454 2300.97 225.529C2349.44 355.496 2428.94 470.077 2490.75 499.035C2568.46 535.428 2656.03 511.017 2736.59 430.465C2778.05 389.026 2788.66 381.077 2804.1 379.96C2823.54 378.554 2835.45 396.16 2848.52 445.64C2879 561.009 2942.48 627.753 3029.98 636.438C3098.35 643.217 3196.73 597.547 3312.59 505.236C3371.74 458.121 3389.67 423.632 3366.13 402.361C3346.62 384.729 3221.21 344.473 3140.28 329.836C3045.26 312.677 2979.62 311.285 2887.44 324.502C2834.21 332.136 2814.97 327.629 2775.54 298.37C2654.01 208.173 2531.79 160.586 2362.75 137.659C2327.33 132.863 2316.4 132.797 2307.59 137.37ZM2446.44 197.308C2555.14 207.201 2706.89 272.211 2728.47 318.117C2756.67 378.094 2667.03 466.937 2571.14 474.045C2506.39 478.854 2439.24 429.873 2389.7 341.714C2331.97 238.97 2351.73 188.689 2446.44 197.308ZM819.942 307.488C752.712 316.08 690.001 360.607 655.683 424.119C652.793 429.479 650.31 434.025 650.165 434.222C650.021 434.419 641.494 432.396 631.219 429.729C470.128 387.83 372.495 406.46 308.773 491.27C252.014 566.79 263.734 681.739 333.802 736.737C339.228 741.007 346.573 747.458 350.133 751.085L356.584 757.68L345.574 765.839C221.165 858.125 226.788 1052.65 357.057 1162.61C364.415 1168.82 377.264 1180.78 385.594 1189.19L400.769 1204.48L400.414 1213.94C398.339 1268.64 427.94 1332.02 470.522 1364.01C474.358 1366.89 491.176 1382.72 507.901 1399.18C562.82 1453.25 586.719 1465.66 640.811 1468.28L658.337 1469.13L662.463 1485.25C676.245 1539.1 713.703 1597.14 746.55 1615.51C749.217 1617.01 749.742 1616.52 737.826 1623.68C706.241 1642.64 679.49 1670.36 665.143 1699.06C629.761 1769.76 657.155 1871.76 724.451 1919.85C728.458 1922.73 745.972 1939.13 763.367 1956.31C821.006 2013.21 857.951 2029.33 930.647 2029.33C1064.12 2029.33 1145.76 1951.37 1207.38 1765.07L1217.34 1734.98L1234.91 1752.99C1278.14 1797.27 1321.32 1810.66 1378.93 1797.62C1415.64 1789.33 1464.6 1764.88 1464.79 1754.75C1464.95 1745.65 1465.89 1745.15 1472.65 1750.52C1527.87 1794.31 1609.91 1792.59 1670.4 1746.38L1677.19 1741.19L1692.91 1757.01C1725.27 1789.58 1748.84 1802.1 1784.04 1805.44C1819.59 1808.8 1867.48 1794.89 1897.4 1772.5L1902.47 1768.71L1909.55 1772.98C1986.55 1819.35 2090.69 1809.18 2154.12 1749.09L2162.1 1741.53L2171.47 1750.71C2243.85 1821.51 2376.79 1818.54 2448.33 1744.5C2457.96 1734.53 2470.88 1718.07 2472.35 1713.86C2472.63 1713.08 2480.21 1719.58 2489.18 1728.33C2528.98 1767.08 2569.44 1782.79 2633.8 1784.44C2688.53 1785.86 2746.54 1766.26 2785.25 1733.26L2790.11 1729.12L2807.21 1745.78C2909.46 1845.41 3085.93 1808.15 3129.29 1677.76C3146.88 1624.85 3139.04 1576.99 3101.56 1508.52C3090.52 1488.37 3090.55 1490.27 3101.24 1486.87C3185.63 1460.04 3225.72 1411.86 3210.61 1355.46C3203.56 1329.15 3197.28 1320.26 3156.87 1279.35C3138.36 1260.61 3120.74 1241.99 3117.7 1237.99C3068.11 1172.32 2954.37 1168.08 2889.46 1229.45C2868.44 1249.34 2840.6 1293.96 2840.6 1307.78C2840.6 1309.93 2842.1 1311.37 2796.03 1265.25C2759.97 1229.14 2752.83 1221.47 2755.93 1222.09C2795.09 1230 2853.89 1216.32 2886.02 1191.86C2888.8 1189.73 2901.5 1181.78 2914.2 1174.17C2926.92 1166.58 2938.01 1159.82 2938.84 1159.18C2939.97 1158.31 2936.67 1154.18 2926.06 1143.19C2903.57 1119.9 2888.24 1096.14 2883.68 1077.55C2875.26 1043.22 2896.31 954.89 2928.96 887.45C2954.08 835.566 2955.32 785.442 2932.58 741.415C2924.57 725.898 2914.9 714.638 2883.29 684.065C2867.53 668.837 2853.21 653.886 2850.65 650.01C2831.44 620.908 2796.19 599.203 2761.25 594.946C2743.12 592.739 2729.38 594.985 2704.31 604.248L2692.72 608.531L2683.49 604.327C2608.77 570.285 2512.11 599.505 2425.75 682.252L2412.23 695.22L2392.72 675.853C2382 665.198 2369.77 651.836 2365.55 646.147C2309.24 570.324 2202.21 560.326 2134.35 624.547L2122.87 635.413L2115.74 628.187C2087.56 599.571 2045.48 587.759 2006.76 597.6C1990.51 601.739 1941.58 622.222 1941.58 624.889C1941.58 625.335 1943.17 630.446 1945.09 636.227C1947.02 642.021 1949 649.208 1949.49 652.23L1950.38 657.696L1929.26 636.963C1889.28 597.705 1850.23 578.549 1810.81 578.851C1757.5 579.259 1704.57 599.295 1659.07 636.293C1646.36 646.646 1648.49 646.594 1641.9 636.714C1618.54 601.607 1577.6 582.859 1523.71 582.556C1482.73 582.333 1451.74 594.959 1420.1 624.744L1409.02 635.15L1400.61 626.886C1372.26 599.032 1328.71 587.418 1291.73 597.837C1274.17 602.79 1227.49 622.445 1227.49 624.889C1227.49 625.322 1228.85 629.606 1230.52 634.388C1232.19 639.184 1234.34 646.594 1235.32 650.864L1237.08 658.642L1214.94 636.779C1192.17 614.273 1185.65 609.123 1167.88 599.531C1143.98 586.642 1119.29 579.009 1100.73 578.772L1088.93 578.628L1089.78 573.149C1091.46 562.244 1090.58 528.058 1088.35 517.337C1079.9 476.831 1069.93 460.762 1024.9 415C1007.45 397.277 991.295 380.302 989.008 377.293C952.536 329.298 880.852 299.697 819.942 307.488ZM3046.81 351.186C3121.7 358.925 3208.96 384.191 3248.22 409.509C3290.07 436.508 3292.41 466.543 3255.59 504.237C3191.03 570.324 3081.03 611.146 3015.17 593.461C2931.96 571.113 2864.31 454.285 2895.98 387.633C2911.78 354.353 2961.39 342.37 3046.81 351.186ZM864.56 353.564C926.679 363.642 967.12 404.384 973.4 463.232C982.176 545.492 888.564 601.844 787.135 575.37C779.422 573.359 771.907 571.428 770.449 571.087C761.738 569.05 767.9 658.313 781.643 733.348C796.332 813.519 799.813 876.387 793.06 939.321C788.895 978.119 774.929 1032.72 769.319 1032.16C768.057 1032.04 757.166 1030.57 745.131 1028.89C584.551 1006.52 479.009 1042.45 421.581 1139L415.892 1148.55L412.633 1146.83C312.399 1094 268.753 938.033 328.218 845.157C385.2 756.182 527.609 731.705 599.358 798.567C657.746 852.961 650.034 937.691 585.156 954.785C564.699 960.158 502.199 952.669 507.52 945.469C542.718 897.816 544.085 865.732 510.923 865.732C456.477 865.732 441.105 962.431 489.586 999.942C545.188 1042.94 645.632 1006.09 674.944 931.937C691.42 890.301 692.327 840.046 678.807 717.923C670.412 641.916 668.848 620.606 668.809 581.4C668.782 551.379 668.559 547.595 666.812 547.043C649.167 541.446 597.125 537.412 579.388 540.277C514.549 550.722 464.426 644.807 501.319 686.824L505.05 691.081L496.746 696.441C442.734 731.272 388.813 728.985 350.921 690.24C311.02 649.458 305.935 574.121 339.833 526.008C396.906 445.022 481.598 433.342 654.317 482.638C667.258 486.343 677.993 489.194 678.15 488.984C678.308 488.773 679.398 485.042 680.581 480.693C703.258 397.053 784.888 340.636 864.56 353.564ZM866.781 425.958C835.524 432.422 797.974 467.699 783.416 504.251C778.831 515.76 778.489 515.353 794.4 517.665C823.568 521.896 847.073 521.318 869.5 515.826C888.288 511.214 905.434 489.549 905.329 470.576C905.158 441.186 888.17 421.53 866.781 425.958ZM1104.61 623.601C1187.02 636.267 1217.08 700.908 1177.61 780.567C1139.83 856.824 1068.48 878.502 1018.1 829.009C1008.36 819.458 1008.55 819.182 1008.52 843.33C1008.48 878.607 1019.81 899.958 1045.19 912.465C1081.58 930.413 1140.82 919.954 1175.46 889.473L1180.91 884.677L1181.72 897.711C1182.39 908.406 1180.81 940.175 1179.54 941.436C1179.36 941.633 1174.05 939.347 1167.76 936.378C1097.82 903.321 988.47 933.658 878.947 1016.51C865.059 1027.02 866.163 1026.84 861.63 1019.33C827.615 963.01 831.74 880.026 872.837 793.798C926.482 681.24 1022.22 610.936 1104.61 623.601ZM1826.62 624.849C1905.65 640.97 1932.15 713.587 1886.79 789.699C1845.09 859.635 1780.65 876.321 1732.8 829.548C1722.21 819.208 1722.38 818.998 1722.38 842.384C1722.38 871.237 1727.08 885.348 1741.61 899.944C1773.52 932.016 1843.33 927.509 1888.22 890.459C1891.32 887.896 1894.2 885.794 1894.61 885.794C1896.58 885.794 1895.28 929.795 1892.91 943.643C1874.74 1049.93 1762.69 1110.9 1650.84 1075.34C1552.88 1044.19 1524.42 933.054 1581.6 804.926C1589.15 787.991 1589.13 787.833 1579.97 796.57C1550.08 825.107 1510.32 832.662 1466.63 818.117L1456.99 814.899L1461.64 812.507C1494.03 795.9 1502.32 730.969 1472.81 725.044C1449.44 720.353 1421.56 741.651 1390.61 787.873C1354.34 842.043 1326.16 961.183 1336.18 1017.99L1338.15 1029.15L1334.58 1041.1C1331.46 1051.55 1318 1091.86 1315.66 1097.77C1315.07 1099.26 1313.62 1096.44 1310.88 1088.44C1302.42 1063.85 1292.1 1050.18 1254.95 1014.34C1240.49 1000.39 1225.69 985.017 1222.03 980.182C1214.53 970.209 1199.25 955.166 1190.53 949.161C1183.5 944.326 1183.49 944.681 1191.67 920.033C1199.96 895.031 1206.14 881.104 1235.44 821.323C1284.9 720.367 1295.04 687.139 1286.48 654.24C1285.48 650.391 1284.65 646.804 1284.65 646.265C1284.65 641.614 1315.58 637.738 1329.72 640.602C1364.82 647.724 1399.01 685.681 1399.01 717.542C1399.01 722.272 1400.49 720.721 1410.91 705.139C1444.13 655.488 1479.02 629.5 1515.81 627.043C1586.14 622.353 1632.72 670.558 1616.91 731.705C1613.47 745.001 1613.98 745.645 1620.46 736.107C1675.47 655.094 1757.61 610.765 1826.62 624.849ZM2251.36 627.99C2306.44 635.649 2347.29 678.704 2349.97 731.902C2351.02 752.871 2347.27 768.94 2335.21 795.164C2323.9 819.773 2310.71 865.469 2304.81 900.457C2292.25 974.939 2299.28 1031.83 2325.36 1066.95L2331.15 1074.75L2328.27 1077.04C2237.38 1149.33 2149.05 1122.14 2131.94 1016.61C2123.69 965.782 2135.08 925.302 2187.93 817.671C2232.78 726.332 2239.23 707.872 2231.56 692.868C2225.11 680.242 2205.19 680.623 2184.71 693.761C2155.21 712.681 2095.24 796.202 2078.54 841.609C2040.24 945.772 2037.7 1031.4 2071.8 1068.71L2078.02 1075.51L2069.34 1081.13C1950.16 1158.22 1854.63 1055.68 1909.23 909.26C1917.98 885.781 1925.85 868.53 1953.77 811.588C1998.26 720.853 2008.28 687.533 2000.72 655.489C1999.64 650.943 1998.76 646.764 1998.76 646.213C1998.76 639.735 2036.41 637.436 2053.06 642.902C2083.48 652.9 2113.12 690.03 2113.12 718.146C2113.12 722.219 2114.9 720.34 2123.18 707.543C2162.03 647.526 2204.09 621.42 2251.36 627.99ZM2630.75 635.216C2667.34 639.289 2694.76 658.471 2711.43 691.646C2716.77 702.262 2716.94 702.157 2719 687.284C2720.54 676.09 2719.72 661.269 2717.07 652.44C2715.06 645.779 2715.11 645.713 2724.45 642.403C2749.39 633.56 2779.92 641.115 2801.56 661.467C2835.4 693.288 2841.28 742.466 2817.01 790.632C2801.63 821.205 2782.68 875.112 2774.37 912.019C2758.18 983.821 2762.94 1036.59 2788.45 1068.24C2791.8 1072.4 2794.38 1075.96 2794.15 1076.16C2789.41 1080.35 2762.16 1094.71 2751.45 1098.67C2673.48 1127.45 2613.63 1081.16 2609.15 988.59L2608.85 982.507L2601.32 994.765C2562.95 1057.21 2512.45 1087.8 2457.5 1081.83C2357.69 1071.01 2318.3 968.488 2366.61 845.262C2412.28 728.789 2519.39 638.172 2616.15 634.151C2618.16 634.059 2624.73 634.546 2630.75 635.216ZM1102.68 672.28C1070.35 679.309 1035.76 720.248 1018.31 772.093C1011.72 791.657 1011.73 791.617 1020.37 793.404C1054.86 800.578 1091.92 775.719 1113.79 730.759C1127.75 702.012 1129.32 677.207 1117.46 672.253C1112.48 670.177 1112.35 670.177 1102.68 672.28ZM1818.72 671.701C1783.46 677.785 1733.35 741.756 1727.26 788.464C1725.79 799.763 1765.4 795.388 1785.49 782.026C1824.95 755.801 1855.75 680.544 1830.62 671.78C1826.5 670.348 1826.58 670.348 1818.72 671.701ZM635.595 731.902C637.289 745.29 639.011 758.153 639.405 760.479L640.114 764.722L637.408 762.305C623.1 749.508 605.836 728.71 605.836 724.269C605.836 714.008 612.339 698.596 622.39 685.077L628.276 677.167L630.379 692.368C631.548 700.738 633.887 718.527 635.595 731.902ZM2628.32 680.964C2551.58 700.317 2492.24 841.793 2540.36 890.669C2565.1 915.816 2607.63 908.997 2637.52 875.113C2642.88 869.029 2671.39 811.601 2677.21 795.164C2696.06 741.874 2687.71 695.509 2657.16 683.75C2650.38 681.148 2633.92 679.558 2628.32 680.964ZM641.31 782.315C641.678 786.178 641.454 786.835 640.154 785.757C637.066 783.195 635.857 779.74 637.644 778.61C640.377 776.876 640.837 777.336 641.31 782.315ZM1509.52 881.327C1511.94 883.902 1512.05 884.717 1510.94 890.616C1510.27 894.177 1509.72 898.92 1509.72 901.166C1509.72 906.211 1509.11 906.225 1500.89 901.35L1494.29 897.448L1499.82 887.975C1506.04 877.333 1505.88 877.451 1509.52 881.327ZM1441.03 911.992C1498.97 922.096 1536.73 979.038 1524.56 1037.99C1520.17 1059.26 1511.06 1078.81 1466.81 1161.95C1407.56 1273.22 1374.27 1345.55 1353.42 1408.3C1316.12 1520.49 1319.76 1601.88 1364.15 1648.25C1369.93 1654.29 1370.47 1653.48 1354.6 1662.57C1277.75 1706.66 1210.91 1694.49 1181.15 1630.99C1154.76 1574.7 1167.36 1511.36 1228.96 1390.66C1364.47 1125.06 1403.12 1024.75 1403.24 938.414L1403.27 912.557L1406.92 911.979C1408.93 911.651 1411.94 911.178 1413.61 910.928C1420.66 909.851 1431 910.245 1441.03 911.992ZM1132.25 968.541C1218.32 988.761 1233.19 1093.4 1156.41 1138.53C1114.69 1163.04 1038 1171.83 941.342 1163.18L928.821 1162.05L925.576 1165.95C901.952 1194.26 870.919 1259.61 862.077 1299.65C841.16 1394.31 876.871 1454.96 951.931 1452.26C1007.35 1450.28 1039.64 1434.37 1069.98 1394.1C1085 1374.15 1087.64 1368.65 1102.7 1325.75C1126 1259.38 1140.4 1232.93 1163.46 1214.14C1194.65 1188.73 1239.94 1192.91 1259.24 1222.98C1271.76 1242.49 1251.79 1287.48 1213.76 1325.44C1198.88 1340.28 1199.54 1339.13 1187.28 1372.6C1173.08 1411.38 1161.54 1450.33 1136.37 1544.69C1086.1 1733.07 1055.15 1805.09 1001.25 1858.98C910.322 1949.91 752.331 1932.08 706.477 1825.71C674.734 1752.07 704.322 1673.03 772.393 1649.6C776.019 1648.37 779.068 1647.48 779.186 1647.65C779.304 1647.82 781.183 1653.41 783.364 1660.08C797.553 1703.47 816.92 1719.67 854.614 1719.7C926.101 1719.74 977.197 1667.6 1026.7 1544.11C1032.17 1530.5 1036.39 1519.1 1036.07 1518.8C1035.77 1518.49 1027.94 1526.01 1018.66 1535.51C946.085 1609.81 871.681 1629.92 798.657 1594.97C671.975 1534.35 662.213 1314.56 779.974 1174.83C795.451 1156.46 795.951 1155.8 795.044 1154.9C792.876 1152.73 751.253 1154.2 738.758 1156.88C651.742 1175.55 601.999 1257.67 631.18 1334.46L633.545 1340.69L622.43 1344.99C549.064 1373.29 477.998 1339.06 452.561 1263.16C432.065 1202 455.228 1142.48 515.061 1102.53C580.623 1058.76 657.037 1054.01 819.18 1083.56C839.163 1087.2 856.309 1090.18 857.281 1090.18C858.24 1090.18 863.785 1085.92 869.605 1080.73C962.232 997.879 1066.85 953.182 1132.25 968.541ZM1100.36 1017.86C1072.65 1024.81 1013.75 1066.52 976.961 1105.21C971.836 1110.61 971.416 1110.23 985.409 1112.85C1015.34 1118.48 1069.6 1114.76 1092.32 1105.52C1134.44 1088.42 1159.68 1034.63 1132.6 1019.69C1125.81 1015.94 1111.28 1015.12 1100.36 1017.86ZM1662.27 1167.96C1684.23 1182.78 1710.83 1192.86 1742.69 1198.44C1752.48 1200.16 1754.13 1200.74 1751.2 1201.38C1738.12 1204.27 1726.76 1207.61 1718.07 1211.1C1709.57 1214.51 1707.7 1214.89 1705.81 1213.56C1686.32 1199.91 1638.8 1193.07 1606.1 1199.2L1602.04 1199.96L1611.76 1180.05C1617.12 1169.09 1623.22 1155.63 1625.33 1150.15L1629.16 1140.17L1641.4 1151.15C1648.13 1157.18 1657.52 1164.75 1662.27 1167.96ZM1959.13 1172.66C1970.55 1183.91 1983.06 1195.47 1986.91 1198.36L1993.91 1203.62L1985.2 1208.99C1954.46 1227.94 1928.59 1259.14 1914.76 1293.94C1912.64 1299.3 1910.7 1303.89 1910.47 1304.15C1909.42 1305.28 1865.35 1261.58 1860.92 1255.01C1846.05 1232.95 1821.24 1214.18 1796.67 1206.39L1788.16 1203.69L1801.47 1202.88C1844.97 1200.24 1892.98 1183.72 1926.98 1159.69C1932.67 1155.67 1937.56 1152.35 1937.84 1152.31C1938.12 1152.26 1947.7 1161.41 1959.13 1172.66ZM2693.01 1190.73C2692.84 1190.9 2688.61 1189.98 2683.62 1188.68C2634.55 1175.93 2555.78 1202.8 2502.58 1250.43L2494.24 1257.89L2488.83 1252.2C2485.84 1249.06 2481.13 1243.46 2478.34 1239.75C2464.09 1220.71 2441.13 1203.87 2417.85 1195.36C2414.52 1194.14 2411.57 1193 2411.32 1192.82C2411.09 1192.63 2413.33 1189.58 2416.34 1186.04C2422.39 1178.9 2435.08 1161.39 2435.81 1159.17C2436.09 1158.35 2439.1 1160.13 2442.89 1163.32C2500.32 1211.72 2586.14 1211.91 2650.96 1163.77L2659.93 1157.09L2676.62 1173.76C2685.8 1182.92 2693.18 1190.56 2693.01 1190.73ZM2233.68 1214.57C2239.3 1218.29 2245.8 1222.23 2248.15 1223.31L2252.41 1225.29L2242.43 1235.71C2236.93 1241.44 2229.04 1251.14 2224.89 1257.26C2220.73 1263.38 2217.17 1268.61 2216.98 1268.86C2216.12 1269.94 2193.75 1247.59 2189.92 1241.85C2183.49 1232.18 2167.79 1217.35 2155.79 1209.58L2144.98 1202.59L2157.93 1195.69C2165.07 1191.9 2175.54 1186.09 2181.19 1182.77L2191.49 1176.73L2207.48 1192.26C2216.27 1200.8 2228.07 1210.84 2233.68 1214.57ZM2671.05 1229.52C2754.12 1243.99 2779.82 1319.18 2728.17 1396.66C2687.85 1457.18 2629.58 1469.54 2585.59 1426.93L2576.93 1418.55L2576.17 1422.4C2573.33 1436.54 2576.21 1464.55 2581.78 1477.03C2602.28 1522.99 2679.77 1528.34 2732.09 1487.4L2740.69 1480.67L2741.55 1486.38C2744.2 1504.07 2739.75 1542.8 2732.7 1563.4C2703.58 1648.49 2599.98 1693.87 2506.35 1662.53C2419.05 1633.33 2390.06 1544.73 2430.11 1429.59C2474.37 1302.38 2580.99 1213.84 2671.05 1229.52ZM2090.82 1230.17C2182.83 1242.74 2202.17 1349.87 2116.72 1373.56C2106.02 1376.52 2106.4 1376.8 2108.94 1368.04C2116.93 1340.6 2098.77 1310.8 2075.51 1313.2C2054.44 1315.39 2038.86 1346.48 2040.45 1383.22C2041.46 1406.48 2046.11 1419.63 2070.21 1467.31C2099.82 1525.9 2103.18 1558.11 2084.24 1601.92C2052.29 1675.84 1958.59 1709.78 1879.68 1676C1806.28 1644.59 1789.65 1569.73 1837.8 1487.58L1843.42 1478L1846.02 1487.01C1858.31 1529.61 1901.77 1535.97 1935.94 1500.15C1958.7 1476.32 1964.64 1447.72 1953.75 1414.44C1920.76 1313.59 1992.78 1216.75 2090.82 1230.17ZM2392.78 1232.46C2474.36 1252.69 2487.24 1347.55 2411.76 1372.14C2397.89 1376.66 2396.36 1376.76 2397.76 1373.09C2416.47 1323.87 2361.37 1289.19 2339.31 1336.3C2323.15 1370.86 2326.97 1400.54 2354.66 1455.5C2388.82 1523.29 2393.11 1547.25 2378.8 1590.13C2358.37 1651.4 2304.22 1688.07 2234.16 1688.07C2139.51 1688.07 2083.06 1623.31 2105.29 1540.23C2110.94 1519.11 2132.02 1475.16 2134.01 1480.34C2134.47 1481.54 2135.82 1485.78 2137 1489.77C2147.32 1524.42 2183.29 1533.68 2215.48 1509.95C2245.45 1487.87 2256.37 1451.28 2243.99 1414.38C2236.99 1393.49 2235.65 1385.91 2235.57 1366.94C2235.2 1277.14 2311.13 1212.2 2392.78 1232.46ZM3033.1 1232.38C3117.98 1254.54 3127.86 1351.45 3047.5 1373.55C3036.68 1376.52 3037.35 1376.99 3039.69 1368.1C3052.05 1320.98 3003.71 1292.18 2981.31 1333.33C2962.79 1367.37 2966.9 1398.21 2998.47 1462.02C3029.35 1524.46 3033.33 1548.9 3019.36 1590.59C2993.65 1667.31 2905.77 1707.61 2822.97 1680.62C2739.33 1653.36 2716.77 1569.25 2770.37 1484.57L2774.46 1478.12L2775.89 1484.31C2785.81 1527.3 2830.56 1536.35 2864.92 1502.31C2889.47 1477.98 2895.91 1448.35 2884.28 1413.16C2849.9 1309.16 2934.33 1206.59 3033.1 1232.38ZM1667.64 1243.36C1694.25 1251.1 1714.05 1267.68 1727.42 1293.38C1732.7 1303.53 1732.8 1303.63 1733.86 1300.03C1736.09 1292.5 1736.36 1268.86 1734.29 1260.11C1733.22 1255.55 1732.34 1251.32 1732.34 1250.72C1732.34 1243.94 1770.8 1242.02 1786.72 1248C1842.07 1268.84 1858.47 1327.95 1827.3 1394.3C1774.42 1506.87 1764.75 1611.8 1803.05 1657.37L1807.9 1663.14L1800.22 1668.13C1716.9 1722.33 1636.9 1684.45 1630.47 1587.75L1629.54 1573.77L1623.55 1583.49C1577.38 1658.26 1515.37 1685.77 1449.86 1660.55C1348.85 1621.66 1354.43 1460.16 1461.05 1336.66C1521.32 1266.85 1610.3 1226.66 1667.64 1243.36ZM2659.79 1277.32C2630.91 1287.31 2600.03 1326.42 2584.59 1372.56C2578.81 1389.84 2578.83 1390.08 2586.51 1391.92C2622.81 1400.63 2666.36 1366.94 2683.03 1317.26C2694.37 1283.51 2685.58 1268.42 2659.79 1277.32ZM1070.27 1279.35C1071.99 1280.71 1046.32 1349.73 1041.55 1356.6C1023.76 1382.16 997.614 1400.73 970.693 1406.91L967.553 1407.63L968.565 1400.06C972.743 1368.68 989.823 1325.55 1012.13 1290.03L1019.95 1277.59L1044.94 1278.33C1058.7 1278.74 1070.09 1279.2 1070.27 1279.35ZM1643.53 1285.3C1595.06 1299.54 1547.12 1375.26 1547.16 1437.5C1547.21 1501.77 1604.69 1521.23 1654.07 1473.69C1666.7 1461.54 1696.16 1396.86 1702.01 1368.49C1713.72 1311.59 1686.39 1272.7 1643.53 1285.3ZM315.815 1388.93C311.808 1455.82 279.697 1503.41 232.964 1511.71C227.616 1512.66 222.965 1513.51 222.624 1513.59C222.295 1513.69 226.184 1514.5 231.269 1515.42C286.306 1525.39 324.329 1571.48 324.014 1627.89L323.935 1643.09L328.56 1625.36C344.089 1565.81 374.952 1527.55 414.841 1518.4C428.386 1515.29 428.36 1515.38 416.325 1512.57C359.659 1499.35 322.201 1452.08 321.912 1393.4C321.833 1375.32 321.754 1374.85 319.244 1374.85C316.801 1374.85 316.604 1375.64 315.815 1388.93ZM465.49 1604.62C462.796 1621.42 450.249 1635.15 425.181 1648.75L415.445 1654.03L422.461 1654.78C444.323 1657.16 458.592 1672.7 469.208 1705.74C469.536 1706.74 470.85 1703.46 472.138 1698.44C477.827 1676.25 488.522 1663.78 505.536 1659.5L513.261 1657.55L505.799 1654.01C487.825 1645.48 471.231 1622.83 469.339 1604.25C468.787 1598.89 466.37 1599.11 465.49 1604.62ZM218.59 1621.5C218.038 1623.01 217.158 1631.22 216.632 1639.75C214.464 1674.97 187.333 1711.81 155.407 1722.89C149.126 1725.08 149.678 1726.37 156.3 1724.97C179.411 1720.04 198.488 1740.48 212.73 1785.44C221.021 1811.64 222.019 1812.78 222.019 1796.09C222.019 1768.77 236.971 1742.77 260.121 1729.83C267.465 1725.73 268.057 1723.99 262.105 1723.99C236.196 1723.99 213.978 1683.44 218.905 1645.14C220.548 1632.31 220.337 1616.67 218.59 1621.5Z" stroke="white" stroke-width="244" mask="url(#path-1-outside-1_173_61)"/>
</g>
<defs>
<filter id="filter0_d_173_61" x="0.686523" y="0" width="3535.48" height="2189.33" filterUnits="userSpaceOnUse" color-interpolation-filters="sRGB">
<feFlood flood-opacity="0" result="BackgroundImageFix"/>
<feColorMatrix in="SourceAlpha" type="matrix" values="0 0 0 0 0 0 0 0 0 0 0 0 0 0 0 0 0 0 127 0" result="hardAlpha"/>
<feOffset dx="13" dy="13"/>
<feGaussianBlur stdDeviation="12.5"/>
<feComposite in2="hardAlpha" operator="out"/>
<feColorMatrix type="matrix" values="0 0 0 0 0 0 0 0 0 0 0 0 0 0 0 0 0 0 0.25 0"/>
<feBlend mode="normal" in2="BackgroundImageFix" result="effect1_dropShadow_173_61"/>
<feBlend mode="normal" in="SourceGraphic" in2="effect1_dropShadow_173_61" result="shape"/>
</filter>
</defs>
</svg>
