<svg width="3226" height="1896" viewBox="0 0 3226 1896" fill="none" xmlns="http://www.w3.org/2000/svg">
<path fill-rule="evenodd" clip-rule="evenodd" d="M2156.59 3.36964C2134.65 14.7739 2132.42 44.4539 2149.97 91.5293C2198.44 221.496 2277.94 336.077 2339.75 365.035C2417.46 401.428 2505.03 377.017 2585.59 296.465C2627.05 255.026 2637.66 247.077 2653.1 245.96C2672.54 244.554 2684.45 262.16 2697.52 311.64C2728 427.009 2791.48 493.753 2878.98 502.438C2947.35 509.217 3045.73 463.547 3161.59 371.236C3220.74 324.121 3238.67 289.632 3215.13 268.361C3195.62 250.729 3070.21 210.473 2989.28 195.836C2894.26 178.677 2828.62 177.285 2736.44 190.502C2683.21 198.136 2663.97 193.629 2624.54 164.37C2503.01 74.1734 2380.79 26.5855 2211.75 3.65873C2176.33 -1.13685 2165.4 -1.20258 2156.59 3.36964ZM2295.44 63.3078C2404.14 73.2011 2555.89 138.211 2577.47 184.117C2605.67 244.094 2516.03 332.937 2420.14 340.045C2355.39 344.854 2288.24 295.873 2238.7 207.714C2180.97 104.97 2200.73 54.6889 2295.44 63.3078ZM668.942 173.488C601.712 182.08 539.001 226.607 504.683 290.119C501.793 295.479 499.31 300.025 499.165 300.222C499.021 300.419 490.494 298.396 480.219 295.729C319.128 253.83 221.495 272.46 157.773 357.27C101.014 432.79 112.734 547.739 182.802 602.737C188.228 607.007 195.573 613.458 199.133 617.085L205.584 623.68L194.574 631.839C70.1652 724.125 75.7885 918.654 206.057 1028.61C213.415 1034.82 226.264 1046.78 234.594 1055.19L249.769 1070.48L249.414 1079.94C247.339 1134.64 276.94 1198.02 319.522 1230.01C323.358 1232.89 340.176 1248.72 356.901 1265.18C411.82 1319.25 435.719 1331.66 489.811 1334.28L507.337 1335.13L511.463 1351.25C525.245 1405.1 562.703 1463.14 595.55 1481.51C598.217 1483.01 598.742 1482.52 586.826 1489.68C555.241 1508.64 528.49 1536.36 514.143 1565.06C478.761 1635.76 506.155 1737.76 573.451 1785.85C577.458 1788.73 594.972 1805.13 612.367 1822.31C670.006 1879.21 706.951 1895.33 779.647 1895.33C913.122 1895.33 994.765 1817.37 1056.38 1631.07L1066.34 1600.98L1083.91 1618.99C1127.14 1663.27 1170.32 1676.66 1227.93 1663.62C1264.64 1655.33 1313.6 1630.88 1313.79 1620.75C1313.95 1611.65 1314.89 1611.15 1321.65 1616.52C1376.87 1660.31 1458.91 1658.59 1519.4 1612.38L1526.19 1607.19L1541.91 1623.01C1574.27 1655.58 1597.84 1668.1 1633.04 1671.44C1668.59 1674.8 1716.48 1660.89 1746.4 1638.5L1751.47 1634.71L1758.55 1638.98C1835.55 1685.35 1939.69 1675.18 2003.12 1615.09L2011.1 1607.53L2020.47 1616.71C2092.85 1687.51 2225.79 1684.54 2297.33 1610.5C2306.96 1600.53 2319.88 1584.07 2321.35 1579.86C2321.63 1579.08 2329.21 1585.58 2338.18 1594.33C2377.98 1633.08 2418.44 1648.79 2482.8 1650.44C2537.53 1651.86 2595.54 1632.26 2634.25 1599.26L2639.11 1595.12L2656.21 1611.78C2758.46 1711.41 2934.93 1674.15 2978.29 1543.76C2995.88 1490.85 2988.04 1442.99 2950.56 1374.52C2939.52 1354.37 2939.55 1356.27 2950.24 1352.87C3034.63 1326.04 3074.72 1277.86 3059.61 1221.46C3052.56 1195.15 3046.28 1186.26 3005.87 1145.35C2987.36 1126.61 2969.74 1107.99 2966.7 1103.99C2917.11 1038.32 2803.37 1034.08 2738.46 1095.45C2717.44 1115.34 2689.6 1159.96 2689.6 1173.78C2689.6 1175.93 2691.1 1177.37 2645.03 1131.25C2608.97 1095.14 2601.83 1087.47 2604.93 1088.09C2644.09 1096 2702.89 1082.32 2735.02 1057.86C2737.8 1055.73 2750.5 1047.78 2763.2 1040.17C2775.92 1032.58 2787.01 1025.82 2787.84 1025.18C2788.97 1024.31 2785.67 1020.18 2775.06 1009.19C2752.57 985.897 2737.24 962.142 2732.68 943.551C2724.26 909.22 2745.31 820.89 2777.96 753.45C2803.08 701.566 2804.32 651.442 2781.58 607.415C2773.57 591.898 2763.9 580.638 2732.29 550.065C2716.53 534.837 2702.21 519.886 2699.65 516.01C2680.44 486.908 2645.19 465.203 2610.25 460.946C2592.12 458.739 2578.38 460.985 2553.31 470.248L2541.72 474.531L2532.49 470.327C2457.77 436.285 2361.11 465.505 2274.75 548.252L2261.23 561.22L2241.72 541.853C2231 531.198 2218.77 517.836 2214.55 512.147C2158.24 436.324 2051.21 426.326 1983.35 490.547L1971.87 501.413L1964.74 494.187C1936.56 465.571 1894.48 453.759 1855.76 463.6C1839.51 467.739 1790.58 488.222 1790.58 490.889C1790.58 491.335 1792.17 496.446 1794.09 502.227C1796.02 508.021 1798 515.208 1798.49 518.23L1799.38 523.696L1778.26 502.963C1738.28 463.705 1699.23 444.549 1659.81 444.851C1606.5 445.259 1553.57 465.295 1508.07 502.293C1495.36 512.646 1497.49 512.594 1490.9 502.714C1467.54 467.607 1426.6 448.859 1372.71 448.556C1331.73 448.333 1300.74 460.959 1269.1 490.744L1258.02 501.15L1249.61 492.886C1221.26 465.032 1177.71 453.418 1140.73 463.837C1123.17 468.79 1076.49 488.445 1076.49 490.889C1076.49 491.322 1077.85 495.606 1079.52 500.388C1081.19 505.184 1083.34 512.594 1084.32 516.864L1086.08 524.642L1063.94 502.779C1041.17 480.273 1034.65 475.123 1016.88 465.531C992.978 452.642 968.29 445.009 949.726 444.772L937.927 444.628L938.781 439.149C940.463 428.244 939.583 394.058 937.349 383.337C928.901 342.831 918.929 326.762 873.903 281C856.455 263.277 840.295 246.302 838.008 243.293C801.536 195.298 729.852 165.697 668.942 173.488ZM2895.81 217.186C2970.7 224.925 3057.96 250.191 3097.22 275.509C3139.07 302.508 3141.41 332.543 3104.59 370.237C3040.03 436.324 2930.03 477.146 2864.17 459.461C2780.96 437.113 2713.31 320.285 2744.98 253.633C2760.78 220.353 2810.39 208.37 2895.81 217.186ZM713.56 219.564C775.679 229.642 816.12 270.384 822.4 329.232C831.176 411.492 737.564 467.844 636.135 441.37C628.422 439.359 620.907 437.428 619.449 437.087C610.738 435.05 616.9 524.313 630.643 599.348C645.332 679.519 648.813 742.387 642.06 805.321C637.895 844.119 623.929 898.723 618.319 898.158C617.057 898.039 606.166 896.568 594.131 894.886C433.551 872.524 328.009 908.445 270.581 1005L264.892 1014.55L261.633 1012.83C161.399 960.001 117.753 804.033 177.218 711.157C234.2 622.182 376.609 597.705 448.358 664.567C506.746 718.961 499.034 803.691 434.156 820.785C413.699 826.158 351.199 818.669 356.52 811.469C391.718 763.816 393.085 731.732 359.923 731.732C305.477 731.732 290.105 828.431 338.586 865.942C394.188 908.944 494.632 872.091 523.944 797.937C540.42 756.301 541.327 706.046 527.807 583.923C519.412 507.916 517.848 486.606 517.809 447.4C517.782 417.379 517.559 413.595 515.812 413.043C498.167 407.446 446.125 403.412 428.388 406.277C363.549 416.722 313.426 510.807 350.319 552.824L354.05 557.081L345.746 562.441C291.734 597.272 237.813 594.985 199.921 556.24C160.02 515.458 154.935 440.121 188.833 392.008C245.906 311.022 330.598 299.342 503.317 348.638C516.258 352.343 526.993 355.194 527.15 354.984C527.308 354.773 528.398 351.042 529.581 346.693C552.258 263.053 633.888 206.636 713.56 219.564ZM715.781 291.958C684.524 298.422 646.974 333.699 632.416 370.251C627.831 381.76 627.489 381.353 643.4 383.665C672.568 387.896 696.073 387.318 718.5 381.826C737.288 377.214 754.434 355.549 754.329 336.576C754.158 307.186 737.17 287.53 715.781 291.958ZM953.615 489.601C1036.02 502.267 1066.08 566.908 1026.61 646.567C988.826 722.824 917.484 744.502 867.097 695.009C857.362 685.458 857.546 685.182 857.519 709.33C857.48 744.607 868.805 765.958 894.189 778.465C930.583 796.413 989.824 785.954 1024.46 755.473L1029.91 750.677L1030.72 763.711C1031.39 774.406 1029.81 806.175 1028.54 807.436C1028.36 807.633 1023.05 805.347 1016.76 802.378C946.822 769.321 837.47 799.658 727.947 882.51C714.059 893.02 715.163 892.837 710.63 885.334C676.615 829.01 680.74 746.026 721.837 659.798C775.482 547.24 871.223 476.936 953.615 489.601ZM1675.62 490.849C1754.65 506.97 1781.15 579.587 1735.79 655.699C1694.09 725.635 1629.65 742.321 1581.8 695.548C1571.21 685.208 1571.38 684.998 1571.38 708.384C1571.38 737.237 1576.08 751.348 1590.61 765.944C1622.52 798.016 1692.33 793.509 1737.22 756.459C1740.32 753.896 1743.2 751.794 1743.61 751.794C1745.58 751.794 1744.28 795.795 1741.91 809.643C1723.74 915.934 1611.69 976.897 1499.84 941.344C1401.88 910.193 1373.42 799.054 1430.6 670.926C1438.15 653.991 1438.13 653.833 1428.97 662.57C1399.08 691.107 1359.32 698.662 1315.63 684.117L1305.99 680.899L1310.64 678.507C1343.03 661.9 1351.32 596.969 1321.81 591.044C1298.44 586.353 1270.56 607.651 1239.61 653.873C1203.34 708.043 1175.16 827.183 1185.18 883.994L1187.15 895.149L1183.58 907.105C1180.46 917.55 1167 957.859 1164.66 963.772C1164.07 965.256 1162.62 962.445 1159.88 954.443C1151.42 929.848 1141.1 916.184 1103.95 880.342C1089.49 866.389 1074.69 851.017 1071.03 846.182C1063.53 836.209 1048.25 821.166 1039.53 815.161C1032.5 810.326 1032.49 810.681 1040.67 786.033C1048.96 761.031 1055.14 747.104 1084.44 687.323C1133.9 586.367 1144.04 553.139 1135.48 520.24C1134.48 516.391 1133.65 512.804 1133.65 512.265C1133.65 507.614 1164.58 503.738 1178.72 506.602C1213.82 513.724 1248.01 551.681 1248.01 583.542C1248.01 588.272 1249.49 586.721 1259.91 571.139C1293.13 521.488 1328.02 495.5 1364.81 493.043C1435.14 488.353 1481.72 536.558 1465.91 597.705C1462.47 611.001 1462.98 611.645 1469.46 602.107C1524.47 521.094 1606.61 476.765 1675.62 490.849ZM2100.36 493.99C2155.44 501.649 2196.29 544.704 2198.97 597.902C2200.02 618.871 2196.27 634.94 2184.21 661.164C2172.9 685.773 2159.71 731.469 2153.81 766.457C2141.25 840.939 2148.28 897.829 2174.36 932.949L2180.15 940.753L2177.27 943.039C2086.38 1015.33 1998.05 988.144 1980.94 882.615C1972.69 831.782 1984.08 791.302 2036.93 683.671C2081.78 592.332 2088.23 573.872 2080.56 558.868C2074.11 546.242 2054.19 546.623 2033.71 559.761C2004.21 578.681 1944.24 662.202 1927.54 707.609C1889.24 811.772 1886.7 897.396 1920.8 934.709L1927.02 941.515L1918.34 947.125C1799.16 1024.22 1703.63 921.676 1758.23 775.26C1766.98 751.781 1774.85 734.53 1802.77 677.588C1847.26 586.853 1857.28 553.533 1849.72 521.489C1848.64 516.943 1847.76 512.764 1847.76 512.213C1847.76 505.735 1885.41 503.436 1902.06 508.902C1932.48 518.9 1962.12 556.03 1962.12 584.146C1962.12 588.219 1963.9 586.34 1972.18 573.543C2011.03 513.526 2053.09 487.42 2100.36 493.99ZM2479.75 501.216C2516.34 505.289 2543.76 524.471 2560.43 557.646C2565.77 568.262 2565.94 568.157 2568 553.284C2569.54 542.09 2568.72 527.269 2566.07 518.44C2564.06 511.779 2564.11 511.713 2573.45 508.403C2598.39 499.56 2628.92 507.115 2650.56 527.467C2684.4 559.288 2690.28 608.466 2666.01 656.632C2650.63 687.205 2631.68 741.112 2623.37 778.019C2607.18 849.821 2611.94 902.585 2637.45 934.236C2640.8 938.401 2643.38 941.961 2643.15 942.159C2638.41 946.35 2611.16 960.71 2600.45 964.665C2522.48 993.452 2462.63 947.165 2458.15 854.59L2457.85 848.507L2450.32 860.765C2411.95 923.213 2361.45 953.799 2306.5 947.835C2206.69 937.008 2167.3 834.488 2215.61 711.262C2261.28 594.789 2368.39 504.172 2465.15 500.151C2467.16 500.059 2473.73 500.546 2479.75 501.216ZM951.683 538.28C919.349 545.309 884.755 586.248 867.307 638.093C860.725 657.657 860.725 657.617 869.37 659.404C903.859 666.578 940.923 641.719 962.785 596.759C976.751 568.012 978.315 543.207 966.464 538.253C961.485 536.177 961.353 536.177 951.683 538.28ZM1667.72 537.701C1632.46 543.785 1582.35 607.756 1576.26 654.464C1574.79 665.763 1614.4 661.388 1634.49 648.026C1673.95 621.801 1704.75 546.544 1679.62 537.78C1675.5 536.348 1675.58 536.348 1667.72 537.701ZM484.595 597.902C486.289 611.29 488.011 624.153 488.405 626.479L489.114 630.722L486.408 628.305C472.1 615.508 454.836 594.71 454.836 590.269C454.836 580.008 461.339 564.596 471.39 551.077L477.276 543.167L479.379 558.368C480.548 566.738 482.887 584.527 484.595 597.902ZM2477.32 546.964C2400.58 566.317 2341.24 707.793 2389.36 756.669C2414.1 781.816 2456.63 774.997 2486.52 741.113C2491.88 735.029 2520.39 677.601 2526.21 661.164C2545.06 607.874 2536.71 561.509 2506.16 549.75C2499.38 547.148 2482.92 545.558 2477.32 546.964ZM490.31 648.315C490.678 652.178 490.454 652.835 489.154 651.757C486.066 649.195 484.857 645.74 486.644 644.61C489.377 642.876 489.837 643.336 490.31 648.315ZM1358.52 747.327C1360.94 749.902 1361.05 750.717 1359.94 756.616C1359.27 760.177 1358.72 764.92 1358.72 767.166C1358.72 772.211 1358.11 772.225 1349.89 767.35L1343.29 763.448L1348.82 753.975C1355.04 743.333 1354.88 743.451 1358.52 747.327ZM1290.03 777.992C1347.97 788.096 1385.73 845.038 1373.56 903.991C1369.17 925.262 1360.06 944.813 1315.81 1027.95C1256.56 1139.22 1223.27 1211.55 1202.42 1274.3C1165.12 1386.49 1168.76 1467.88 1213.15 1514.25C1218.93 1520.29 1219.47 1519.48 1203.6 1528.57C1126.75 1572.66 1059.91 1560.49 1030.15 1496.99C1003.76 1440.7 1016.36 1377.36 1077.96 1256.66C1213.47 991.06 1252.12 890.748 1252.24 804.414L1252.27 778.557L1255.92 777.979C1257.93 777.651 1260.94 777.178 1262.61 776.928C1269.66 775.851 1280 776.245 1290.03 777.992ZM981.245 834.541C1067.32 854.761 1082.19 959.396 1005.41 1004.53C963.692 1029.04 887.002 1037.83 790.342 1029.18L777.821 1028.05L774.576 1031.95C750.952 1060.26 719.919 1125.61 711.077 1165.65C690.16 1260.31 725.871 1320.96 800.931 1318.26C856.35 1316.28 888.644 1300.37 918.981 1260.1C933.999 1240.15 936.64 1234.65 951.696 1191.75C975.004 1125.38 989.404 1098.93 1012.46 1080.14C1043.65 1054.73 1088.94 1058.91 1108.24 1088.98C1120.76 1108.49 1100.79 1153.48 1062.76 1191.44C1047.88 1206.28 1048.54 1205.13 1036.28 1238.6C1022.08 1277.38 1010.54 1316.33 985.371 1410.69C935.102 1599.07 904.148 1671.09 850.254 1724.98C759.322 1815.91 601.331 1798.08 555.477 1691.71C523.734 1618.07 553.322 1539.03 621.393 1515.6C625.019 1514.37 628.068 1513.48 628.186 1513.65C628.304 1513.82 630.183 1519.41 632.364 1526.08C646.553 1569.47 665.92 1585.67 703.614 1585.7C775.101 1585.74 826.197 1533.6 875.703 1410.11C881.169 1396.5 885.386 1385.1 885.071 1384.8C884.769 1384.49 876.938 1392.01 867.662 1401.51C795.085 1475.81 720.681 1495.92 647.657 1460.97C520.975 1400.35 511.213 1180.56 628.974 1040.83C644.451 1022.46 644.951 1021.8 644.044 1020.9C641.876 1018.73 600.253 1020.2 587.758 1022.88C500.742 1041.55 450.999 1123.67 480.18 1200.46L482.545 1206.69L471.43 1210.99C398.064 1239.29 326.998 1205.06 301.561 1129.16C281.065 1068 304.228 1008.48 364.061 968.528C429.623 924.763 506.037 920.007 668.18 949.556C688.163 953.195 705.309 956.177 706.281 956.177C707.24 956.177 712.785 951.921 718.605 946.731C811.232 863.879 915.854 819.182 981.245 834.541ZM949.358 883.863C921.649 890.813 862.748 932.515 825.961 971.208C820.836 976.608 820.416 976.227 834.409 978.855C864.338 984.478 918.6 980.76 941.317 971.523C983.439 954.417 1008.68 900.628 981.6 885.689C974.807 881.945 960.276 881.117 949.358 883.863ZM1511.27 1033.96C1533.23 1048.78 1559.83 1058.86 1591.69 1064.44C1601.48 1066.16 1603.13 1066.74 1600.2 1067.38C1587.12 1070.27 1575.76 1073.61 1567.07 1077.1C1558.57 1080.51 1556.7 1080.89 1554.81 1079.56C1535.32 1065.91 1487.8 1059.07 1455.1 1065.2L1451.04 1065.96L1460.76 1046.05C1466.12 1035.09 1472.22 1021.63 1474.33 1016.15L1478.16 1006.17L1490.4 1017.15C1497.13 1023.18 1506.52 1030.75 1511.27 1033.96ZM1808.13 1038.66C1819.55 1049.91 1832.06 1061.47 1835.91 1064.36L1842.91 1069.62L1834.2 1074.99C1803.46 1093.94 1777.59 1125.14 1763.76 1159.94C1761.64 1165.3 1759.7 1169.89 1759.47 1170.15C1758.42 1171.28 1714.35 1127.58 1709.92 1121.01C1695.05 1098.95 1670.24 1080.18 1645.67 1072.39L1637.16 1069.69L1650.47 1068.88C1693.97 1066.24 1741.98 1049.72 1775.98 1025.69C1781.67 1021.67 1786.56 1018.35 1786.84 1018.31C1787.12 1018.26 1796.7 1027.41 1808.13 1038.66ZM2542.01 1056.73C2541.84 1056.9 2537.61 1055.98 2532.62 1054.68C2483.55 1041.93 2404.78 1068.8 2351.58 1116.43L2343.24 1123.89L2337.83 1118.2C2334.84 1115.06 2330.13 1109.46 2327.34 1105.75C2313.09 1086.71 2290.13 1069.87 2266.85 1061.36C2263.52 1060.14 2260.57 1059 2260.32 1058.82C2260.09 1058.63 2262.33 1055.58 2265.34 1052.04C2271.39 1044.9 2284.08 1027.39 2284.81 1025.17C2285.09 1024.35 2288.1 1026.13 2291.89 1029.32C2349.32 1077.72 2435.14 1077.91 2499.96 1029.77L2508.93 1023.09L2525.62 1039.76C2534.8 1048.92 2542.18 1056.56 2542.01 1056.73ZM2082.68 1080.57C2088.3 1084.29 2094.8 1088.23 2097.15 1089.31L2101.41 1091.29L2091.43 1101.71C2085.93 1107.44 2078.04 1117.14 2073.89 1123.26C2069.73 1129.38 2066.17 1134.61 2065.98 1134.86C2065.12 1135.94 2042.75 1113.59 2038.92 1107.85C2032.49 1098.18 2016.79 1083.35 2004.79 1075.58L1993.98 1068.59L2006.93 1061.69C2014.07 1057.9 2024.54 1052.09 2030.19 1048.77L2040.49 1042.73L2056.48 1058.26C2065.27 1066.8 2077.07 1076.84 2082.68 1080.57ZM2520.05 1095.52C2603.12 1109.99 2628.82 1185.18 2577.17 1262.66C2536.85 1323.18 2478.58 1335.54 2434.59 1292.93L2425.93 1284.55L2425.17 1288.4C2422.33 1302.54 2425.21 1330.55 2430.78 1343.03C2451.28 1388.99 2528.77 1394.34 2581.09 1353.4L2589.69 1346.67L2590.55 1352.38C2593.2 1370.07 2588.75 1408.8 2581.7 1429.4C2552.58 1514.49 2448.98 1559.87 2355.35 1528.53C2268.05 1499.33 2239.06 1410.73 2279.11 1295.59C2323.37 1168.38 2429.99 1079.84 2520.05 1095.52ZM1939.82 1096.17C2031.83 1108.74 2051.17 1215.87 1965.72 1239.56C1955.02 1242.52 1955.4 1242.8 1957.94 1234.04C1965.93 1206.6 1947.77 1176.8 1924.51 1179.2C1903.44 1181.39 1887.86 1212.48 1889.45 1249.22C1890.46 1272.48 1895.11 1285.63 1919.21 1333.31C1948.82 1391.9 1952.18 1424.11 1933.24 1467.92C1901.29 1541.84 1807.59 1575.78 1728.68 1542C1655.28 1510.59 1638.65 1435.73 1686.8 1353.58L1692.42 1344L1695.02 1353.01C1707.31 1395.61 1750.77 1401.97 1784.94 1366.15C1807.7 1342.32 1813.64 1313.72 1802.75 1280.44C1769.76 1179.59 1841.78 1082.75 1939.82 1096.17ZM2241.78 1098.46C2323.36 1118.69 2336.24 1213.55 2260.76 1238.14C2246.89 1242.66 2245.36 1242.76 2246.76 1239.09C2265.47 1189.87 2210.37 1155.19 2188.31 1202.3C2172.15 1236.86 2175.97 1266.54 2203.66 1321.5C2237.82 1389.29 2242.11 1413.25 2227.8 1456.13C2207.37 1517.4 2153.22 1554.07 2083.16 1554.07C1988.51 1554.07 1932.06 1489.31 1954.29 1406.23C1959.94 1385.11 1981.02 1341.16 1983.01 1346.34C1983.47 1347.54 1984.82 1351.78 1986 1355.77C1996.32 1390.42 2032.29 1399.68 2064.48 1375.95C2094.45 1353.87 2105.37 1317.28 2092.99 1280.38C2085.99 1259.49 2084.65 1251.91 2084.57 1232.94C2084.2 1143.14 2160.13 1078.2 2241.78 1098.46ZM2882.1 1098.38C2966.98 1120.54 2976.86 1217.45 2896.5 1239.55C2885.68 1242.52 2886.35 1242.99 2888.69 1234.1C2901.05 1186.98 2852.71 1158.18 2830.31 1199.33C2811.79 1233.37 2815.9 1264.21 2847.47 1328.02C2878.35 1390.46 2882.33 1414.9 2868.36 1456.59C2842.65 1533.31 2754.77 1573.61 2671.97 1546.62C2588.33 1519.36 2565.77 1435.25 2619.37 1350.57L2623.46 1344.12L2624.89 1350.31C2634.81 1393.3 2679.56 1402.35 2713.92 1368.31C2738.47 1343.98 2744.91 1314.35 2733.28 1279.16C2698.9 1175.16 2783.33 1072.59 2882.1 1098.38ZM1516.64 1109.36C1543.25 1117.1 1563.05 1133.68 1576.42 1159.38C1581.7 1169.53 1581.8 1169.63 1582.86 1166.03C1585.09 1158.5 1585.36 1134.86 1583.29 1126.11C1582.22 1121.55 1581.34 1117.32 1581.34 1116.72C1581.34 1109.94 1619.8 1108.02 1635.72 1114C1691.07 1134.84 1707.47 1193.95 1676.3 1260.3C1623.42 1372.87 1613.75 1477.8 1652.05 1523.37L1656.9 1529.14L1649.22 1534.13C1565.9 1588.33 1485.9 1550.45 1479.47 1453.75L1478.54 1439.77L1472.55 1449.49C1426.38 1524.26 1364.37 1551.77 1298.86 1526.55C1197.85 1487.66 1203.43 1326.16 1310.05 1202.66C1370.32 1132.85 1459.3 1092.66 1516.64 1109.36ZM2508.79 1143.32C2479.91 1153.31 2449.03 1192.42 2433.59 1238.56C2427.81 1255.84 2427.83 1256.08 2435.51 1257.92C2471.81 1266.63 2515.36 1232.94 2532.03 1183.26C2543.37 1149.51 2534.58 1134.42 2508.79 1143.32ZM919.27 1145.35C920.992 1146.71 895.319 1215.73 890.55 1222.6C872.76 1248.16 846.614 1266.73 819.693 1272.91L816.553 1273.63L817.565 1266.06C821.743 1234.68 838.823 1191.55 861.132 1156.03L868.95 1143.59L893.939 1144.33C907.695 1144.74 919.086 1145.2 919.27 1145.35ZM1492.53 1151.3C1444.06 1165.54 1396.12 1241.26 1396.16 1303.5C1396.21 1367.77 1453.69 1387.23 1503.07 1339.69C1515.7 1327.54 1545.16 1262.86 1551.01 1234.49C1562.72 1177.59 1535.39 1138.7 1492.53 1151.3ZM164.815 1254.93C160.808 1321.82 128.697 1369.41 81.9636 1377.71C76.6162 1378.66 71.9651 1379.51 71.6235 1379.59C71.295 1379.69 75.1841 1380.5 80.2687 1381.42C135.306 1391.39 173.329 1437.48 173.014 1493.89L172.935 1509.09L177.56 1491.36C193.089 1431.81 223.952 1393.55 263.841 1384.4C277.386 1381.29 277.36 1381.38 265.325 1378.57C208.659 1365.35 171.201 1318.08 170.912 1259.4C170.833 1241.32 170.754 1240.85 168.244 1240.85C165.801 1240.85 165.604 1241.64 164.815 1254.93ZM314.49 1470.62C311.796 1487.42 299.249 1501.15 274.181 1514.75L264.445 1520.03L271.461 1520.78C293.323 1523.16 307.592 1538.7 318.208 1571.74C318.536 1572.74 319.85 1569.46 321.138 1564.44C326.827 1542.25 337.522 1529.78 354.536 1525.5L362.261 1523.55L354.799 1520.01C336.825 1511.48 320.231 1488.83 318.339 1470.25C317.787 1464.89 315.37 1465.11 314.49 1470.62ZM67.59 1487.5C67.0382 1489.01 66.1579 1497.22 65.6323 1505.75C63.4645 1540.97 36.3334 1577.81 4.40672 1588.89C-1.87351 1591.08 -1.32168 1592.37 5.30015 1590.97C28.4109 1586.04 47.488 1606.48 61.7302 1651.44C70.0206 1677.64 71.0192 1678.78 71.0192 1662.09C71.0192 1634.77 85.9709 1608.77 109.121 1595.83C116.465 1591.73 117.057 1589.99 111.105 1589.99C85.1957 1589.99 62.9784 1549.44 67.9053 1511.14C69.5477 1498.31 69.3374 1482.67 67.59 1487.5Z" fill="black"/>
</svg>
