<svg width="100" height="84" viewBox="0 0 100 84" fill="none" xmlns="http://www.w3.org/2000/svg">
<path d="M47.6519 0.0368355C43.8217 0.463054 40.2104 2.27736 37.198 5.30121C36.72 5.77351 36.0749 6.48771 35.7581 6.88513C34.8826 7.97948 33.915 9.45397 33.4485 10.4101C33.3563 10.5944 33.2584 10.7441 33.2296 10.7441C33.195 10.7441 32.3484 10.5368 31.3519 10.2834C27.683 9.36181 25.4079 8.92407 22.7124 8.63033C21.3761 8.48633 18.2083 8.48633 16.9814 8.63033C14.4472 8.93559 12.5407 9.46549 10.5882 10.4274C9.0676 11.1704 7.93293 11.9422 6.73491 13.0423C5.17979 14.4707 3.60739 16.5154 2.9911 17.915C1.97739 20.2189 1.45902 22.5688 1.45902 24.8842C1.45902 29.6302 3.42308 33.806 6.85587 36.3691C7.36848 36.7492 8.54346 37.8954 8.54346 38.0106C8.54346 38.0279 8.31883 38.1949 8.04237 38.385C6.70035 39.3008 5.13947 40.7465 4.14304 41.9906C2.48424 44.0583 1.3035 46.4256 0.623857 49.0174C-0.0961071 51.7533 -0.194022 54.7656 0.335871 57.824C1.30926 63.4628 4.38495 68.7502 8.68746 72.1888C9.11367 72.5286 10.3635 73.7208 11.9705 75.3105C13.6581 76.9808 14.8158 78.0809 15.2823 78.4553C18.8188 81.2718 22.7008 82.8212 27.5505 83.3568C28.6564 83.4778 31.6687 83.4951 32.9071 83.3856C37.6934 82.9594 41.3969 81.8248 44.6569 79.7858C47.9975 77.6893 50.7506 74.4293 52.4958 70.5012C54.6154 65.7206 55.583 59.7593 55.3699 52.8188C55.2432 48.741 54.9149 45.8554 54.1316 41.8466C53.4231 38.2353 53.0891 35.8162 52.9739 33.4604L52.9336 32.6483L53.2734 32.7117C53.4865 32.7462 54.4945 32.775 55.9171 32.775C58.0309 32.775 58.2901 32.7635 59.0504 32.6426C60.6689 32.3891 62.0915 31.9514 63.4047 31.3063C65.1038 30.4769 66.1924 29.6187 67.8282 27.839C68.3408 27.286 68.456 27.1075 69.078 25.9901C69.7347 24.7978 69.7692 24.7172 69.965 23.9454C70.3049 22.5861 70.3567 22.2175 70.3855 20.8524C70.4085 19.9021 70.3913 19.3837 70.3221 18.7847C70.0975 16.8437 69.51 15.0466 68.6 13.4915C67.9203 12.3396 67.5056 11.8673 64.8159 9.16022C63.2435 7.5763 62.1434 6.42436 61.9994 6.20549C61.4464 5.37609 60.2138 4.07439 59.3153 3.36019C57.1266 1.62652 54.3562 0.514892 51.2114 0.117472C50.3475 0.00803698 48.32 -0.0380407 47.6519 0.0368355ZM51.1596 3.80369C54.6327 4.3163 57.4895 6.04422 59.1022 8.61881C59.6724 9.52308 60.162 10.7499 60.3751 11.8097C60.9396 14.6147 60.4673 17.0222 58.9525 18.9978C56.6025 22.085 51.8335 23.6689 46.7937 23.0411C45.7051 22.9029 44.0867 22.5285 43.3206 22.2348C43.24 22.2002 43.2227 22.2693 43.1881 22.7589C43.1248 23.6056 43.1939 27.2227 43.2976 28.3689C43.5164 30.7937 43.7929 32.7405 44.3401 35.6549C45.8664 43.8164 46.0334 50.6302 44.8527 56.5339C43.0441 65.5939 37.9526 71.2269 29.9408 73.0239C27.107 73.6632 23.5994 73.8418 20.8808 73.4905C16.1924 72.8857 11.9878 70.7431 8.94088 67.4024C5.96887 64.1424 4.16608 60.03 3.75714 55.595C3.65923 54.5468 3.72258 52.3408 3.86658 51.3789C4.16032 49.5185 4.56926 48.1938 5.34682 46.5984C7.62767 41.933 11.9993 39.0646 17.903 38.3562C18.9513 38.2353 21.1457 38.1834 21.9636 38.2698C26.197 38.7075 29.6701 41.0518 31.3807 44.6228C31.9855 45.8899 32.2677 46.9785 32.3138 48.2859C32.3944 50.4113 31.8185 52.0125 30.5283 53.2278C28.8753 54.7887 26.2776 55.2264 22.8564 54.518C22.3322 54.4085 21.042 54.0687 20.996 54.0284C20.9844 54.0169 21.1803 53.7404 21.4337 53.4121C22.361 52.2083 23.0291 51.0045 23.2941 50.0542C23.4611 49.4609 23.4784 48.6834 23.3286 48.2572C22.7412 46.5811 20.1435 46.7596 18.6287 48.5855C17.7129 49.6856 17.2752 51.0333 17.2809 52.7612C17.2867 54.8578 17.8972 56.5339 19.1068 57.7895C20.132 58.855 21.5201 59.5404 23.1443 59.7939C24.0716 59.9321 25.7708 59.8803 26.6866 59.6844C31.1964 58.6995 34.6177 55.5432 35.7235 51.3444C36.2189 49.4725 36.4205 47.6005 36.4205 44.928C36.4205 42.2613 36.2592 40.1878 35.6141 34.5606C34.8884 28.2018 34.7098 25.6503 34.7674 22.2578L34.802 20.2649L34.4161 20.1958C32.141 19.7639 31.0063 19.6199 29.5895 19.5738C27.1301 19.4989 25.4021 19.9366 24.1235 20.9504C22.2919 22.4018 20.7425 24.5271 20.0917 26.4797C19.7691 27.4531 19.6885 27.9484 19.6943 28.8872C19.7 29.5554 19.7231 29.8146 19.8267 30.1774C19.9995 30.8283 20.3451 31.5021 20.7425 31.9744L21.0824 32.3776L20.4718 32.7808C19.1817 33.6217 17.6899 34.2956 16.4055 34.6182C15.409 34.8716 14.6315 34.958 13.6408 34.9177C11.4867 34.837 9.64357 34.0249 8.08269 32.4583C7.31664 31.6865 6.80403 30.9723 6.29717 29.9528C5.64633 28.6396 5.29498 27.4243 5.14523 25.9555C4.93212 23.8187 5.35834 21.4514 6.30869 19.5277C6.73491 18.6637 8.02509 16.9992 8.9524 16.1295C10.9165 14.2748 13.1973 13.0999 15.8871 12.5585C17.2637 12.282 17.9606 12.2186 19.8037 12.2186C21.5431 12.2129 22.1709 12.2532 23.8067 12.4778C26.5829 12.8522 30.2806 13.7219 34.7905 15.0582L35.5565 15.2828L35.6199 15.0409C35.9309 13.8601 36.5645 12.2935 37.1347 11.274C37.8834 9.94354 38.6034 8.97015 39.6114 7.92764C41.898 5.57768 44.6741 4.14351 47.7095 3.74609C48.464 3.64242 50.3129 3.67697 51.1596 3.80369ZM31.663 32.7578C32.0373 35.5455 32.429 38.6787 32.3944 38.673C32.3196 38.6615 29.6989 35.891 29.5779 35.6952C29.457 35.5051 29.4455 35.436 29.4743 34.9868C29.5203 34.1459 29.9062 33.1609 30.5686 32.2048C30.8739 31.7556 31.3577 31.1393 31.4095 31.1335C31.4268 31.1335 31.5362 31.865 31.663 32.7578ZM32.5039 39.8883C32.5384 40.1244 32.5787 40.3836 32.5903 40.4643C32.6133 40.5795 32.5557 40.5391 32.2735 40.2396L31.9279 39.8768L32.1756 39.6579C32.308 39.5369 32.4232 39.4448 32.429 39.4506C32.4348 39.4563 32.4693 39.6521 32.5039 39.8883ZM26.3871 56.1768C26.4677 56.2977 26.4619 56.3035 26.3237 56.3035C26.2431 56.3035 26.1336 56.3207 26.076 56.3438C25.9839 56.3783 25.9839 56.3668 26.0875 56.1998C26.2027 55.9924 26.2603 55.9924 26.3871 56.1768Z" fill="#FF00B6"/>
<path d="M51.1941 10.1278C50.9752 10.2027 50.5432 10.387 50.2437 10.531C47.8477 11.6887 46.0622 13.4396 44.9448 15.7262C44.5819 16.475 44.2133 17.4081 44.2652 17.4541C44.317 17.506 45.4689 17.696 46.3847 17.8055C47.3812 17.9264 49.2703 17.9379 50.0709 17.8343C50.8312 17.7364 51.5569 17.5808 52.202 17.3735C52.7204 17.2065 52.778 17.1719 53.1466 16.809C54.0509 15.9105 54.5866 14.989 54.7305 14.102C54.8342 13.4223 54.5002 11.9421 54.0739 11.2336C53.7917 10.7671 53.3885 10.3697 53.0084 10.1796C52.5534 9.96074 51.7701 9.9377 51.1941 10.1278Z" fill="#FF00B6"/>
<path d="M57.7947 36.2826C57.4721 36.3921 57.1957 36.657 57.0287 37.0314C56.9192 37.2791 56.8962 37.4231 56.9019 37.9299C56.9019 38.4944 56.9192 38.5808 57.1669 39.3123C57.7313 40.9595 58.7508 43.1885 59.632 44.7264C60.1965 45.7113 61.1353 47.0994 61.7401 47.8654C62.3564 48.643 63.3874 49.7085 63.8942 50.0887C64.4126 50.4861 65.3169 50.9181 65.9965 51.0966C66.7798 51.304 68.0527 51.3501 68.9167 51.2061C70.155 51.0045 71.5201 50.4458 72.6605 49.6855C73.3862 49.2017 73.7376 48.8849 75.0969 47.5141C76.197 46.4082 76.5944 46.1087 77.1301 45.9878C77.7175 45.8495 78.1553 46.1433 78.5412 46.9266C78.7485 47.3643 78.8925 47.8021 79.2439 49.1038C80.4707 53.6885 83.8977 56.5856 87.5666 56.1364C89.9051 55.8484 92.8541 54.4142 96.1486 51.9663C98.5389 50.1924 99.5411 49.1959 99.8924 48.2513C100.123 47.6408 99.9846 47.1685 99.4605 46.7653C99.1725 46.5465 97.8017 46.005 96.0334 45.4176C92.5258 44.2426 89.3579 43.632 85.9079 43.4593C84.2375 43.3786 82.861 43.465 80.4822 43.8106C79.1114 44.0122 78.0343 43.9143 77.2568 43.5168C77.1416 43.4593 76.675 43.1309 76.22 42.7911C73.4784 40.7579 70.9096 39.3526 68.1103 38.3561C65.5818 37.4576 63.0245 36.8356 60.2195 36.4324C58.6529 36.2078 58.123 36.179 57.7947 36.2826ZM64.2398 38.8515C66.3594 39.2201 69.6136 40.2684 71.3876 41.1554C72.7296 41.8293 74.0428 42.9121 74.3481 43.586C74.6361 44.2253 74.567 45.072 74.1465 45.9647C73.8643 46.5753 73.4842 47.0648 72.8851 47.5947C71.6353 48.6891 70.1608 49.4148 68.6863 49.6567C68.0297 49.7661 66.993 49.7373 66.4573 49.5933C64.8503 49.1729 63.3067 48.0094 61.9647 46.1951C60.473 44.1907 59.4074 41.6622 59.5456 40.4642C59.5975 39.9746 59.8682 39.4735 60.208 39.2259C60.5306 38.9897 60.9856 38.8112 61.4694 38.7363C61.982 38.6557 63.4392 38.7132 64.2398 38.8515ZM87.3823 44.8646C89.8533 45.1872 92.5373 45.9129 94.1039 46.6847C95.0658 47.157 95.6245 47.5659 95.9528 48.0497C96.6152 49.0116 96.3272 49.9447 94.9794 51.2118C93.3609 52.7381 90.9822 53.9822 88.7762 54.4661C88.2809 54.5697 87.9871 54.5985 87.1635 54.5985C86.288 54.6043 86.0922 54.587 85.6659 54.4718C84.6983 54.2069 83.8459 53.6827 82.9877 52.8245C81.5074 51.3385 80.6435 49.5185 80.6377 47.8654C80.632 46.8863 80.8278 46.2585 81.3174 45.7171C81.7609 45.2217 82.5039 44.9337 83.6788 44.7897C84.3297 44.7091 86.5414 44.7552 87.3823 44.8646Z" fill="#FF00B6"/>
<path d="M66.1521 57.703C66.0772 58.6821 65.916 59.6037 65.6971 60.2948C65.0059 62.4893 63.4047 64.0559 61.5328 64.367L61.1008 64.4418L61.5616 64.5225C63.5314 64.8508 65.3169 66.2504 66.1118 68.0992C66.4516 68.8768 66.5553 69.3664 66.5956 70.3859C66.6244 71.1346 66.6417 71.2613 66.682 71.0482C66.7799 70.5241 67.1773 69.2685 67.425 68.6867C67.9031 67.5636 68.3638 66.8552 69.0723 66.1467C69.8671 65.3461 70.8002 64.8162 71.7448 64.6204C71.9752 64.5685 72.1652 64.5225 72.1768 64.5167C72.1825 64.5052 72.0616 64.4821 71.8945 64.4591C71.4395 64.3958 70.7196 64.1481 70.1148 63.8486C68.3638 62.9673 67.1428 61.4468 66.6186 59.4885C66.4804 58.9816 66.4689 58.8146 66.4631 57.8758C66.4574 56.8505 66.4516 56.8217 66.3364 56.8217C66.227 56.8217 66.2155 56.8736 66.1521 57.703Z" fill="#FF00B6"/>
<path d="M74.4173 69.2397C74.3943 69.2628 74.377 69.3549 74.377 69.4471C74.377 69.8272 74.0026 70.5069 73.5476 70.9504C73.2423 71.2441 72.9198 71.4687 72.2574 71.8316L71.7275 72.1254L72.0674 72.1657C72.5454 72.2233 73.1329 72.5285 73.5303 72.926C73.8932 73.2888 74.2676 73.9569 74.4692 74.5905C74.6074 75.0167 74.6132 75.011 74.7226 74.4868C74.8263 73.9857 75.1891 73.3003 75.5232 72.9893C75.863 72.6725 76.3008 72.4421 76.6636 72.3903L76.9343 72.3557L76.6924 72.2521C75.696 71.8258 74.8032 70.7257 74.6016 69.666C74.5268 69.2743 74.4807 69.1764 74.4173 69.2397Z" fill="#FF00B6"/>
<path d="M60.7379 70.9965C60.6976 71.3652 60.6688 71.7511 60.6746 71.8605C60.6746 72.0448 60.6803 72.0506 60.7322 71.9181C60.8243 71.6877 60.9165 70.6337 60.8531 70.4782C60.8128 70.3687 60.7898 70.4839 60.7379 70.9965Z" fill="#FF00B6"/>
<path d="M60.5593 72.4882C60.0121 73.9857 59.0387 75.1146 57.7025 75.7943L57.2993 75.9959L57.6449 76.0016C58.5434 76.0074 59.4707 76.7504 59.9718 77.8563C60.064 78.0521 60.2828 78.6741 60.4614 79.2271C60.9395 80.7073 60.9395 80.7016 60.9395 79.9758C60.9395 78.415 61.7919 76.9808 63.1397 76.2378L63.4392 76.0765L63.1051 76.0074C62.126 75.8173 61.1756 74.7863 60.8703 73.5883C60.8185 73.3867 60.7609 72.972 60.7379 72.6668L60.6975 72.1138L60.5593 72.4882Z" fill="#FF00B6"/>
</svg>
